<svg id="a" xmlns="http://www.w3.org/2000/svg" viewBox="0 0 323.57 246.74">
<defs>
<style>.b{fill:#fff;}</style>
</defs>
<path class="b" d="M210.83,0c-62.27,0-112.74,50.48-112.74,112.74s50.48,112.74,112.74,112.74,112.74-50.48,112.74-112.74S273.09,0,210.83,0Zm0,200.24c-48.32,0-87.5-39.18-87.5-87.5S162.5,25.24,210.83,25.24s87.5,39.18,87.5,87.5-39.18,87.5-87.5,87.5Z"/>
<path class="b" d="M47.5,151.74c-26.23,0-47.5,21.27-47.5,47.5s21.27,47.5,47.5,47.5,47.5-21.27,47.5-47.5-21.27-47.5-47.5-47.5Zm0,72.5c-13.81,0-25-11.19-25-25s11.19-25,25-25,25,11.19,25,25-11.19,25-25,25Z"/>
</svg>