<?xml version="1.0" encoding="UTF-8"?>
<svg preserveAspectRatio="xMidYMid slice" width="34px" height="34px" xmlns="http://www.w3.org/2000/svg" id="Laag_1" viewBox="0 0 200 200">
  <g>
    <path d="M71.31,115.24h-7.54v-6.45h-6.4v6.45h-7.54v-20.08c0-5.53,.88-11.4,10.74-11.4s10.74,5.88,10.74,11.4v20.08Zm-7.54-20.08c0-2.11-.31-3.16-3.2-3.16s-3.2,1.05-3.2,3.16v6.05h6.4v-6.05Z" style="fill:#0067a8;"></path>
    <path d="M86.57,84.54c8.24,0,10.96,3.33,10.96,10.52v9.6c0,7.19-2.72,10.57-10.96,10.57h-11.09v-30.7h11.09Zm.13,23.15c2.1,0,3.16-.35,3.16-2.98v-9.65c0-2.72-1.05-2.98-3.16-2.98h-3.68v15.61h3.68Z" style="fill:#0067a8;"></path>
    <path d="M109.02,84.54v13.59h6.84v-13.59h7.54v30.7h-7.54v-9.56h-6.84v9.56h-7.54v-30.7h7.54Z" style="fill:#0067a8;"></path>
    <path d="M138.88,84.54c8.24,0,10.96,3.33,10.96,10.52v9.6c0,7.19-2.72,10.57-10.96,10.57h-11.1v-30.7h11.1Zm.13,23.15c2.11,0,3.16-.35,3.16-2.98v-9.65c0-2.72-1.05-2.98-3.16-2.98h-3.68v15.61h3.68Z" style="fill:#0067a8;"></path>
  </g>
  <g>
    <g>
      <path d="M144.4,47.6c15.25,12.77,24.96,31.96,24.96,53.41,0,38.46-31.17,69.63-69.63,69.63S30.1,139.47,30.1,101.01c0-21.48,9.73-40.69,25.02-53.46" style="fill:none; stroke:#57c5dc; stroke-linecap:round; stroke-miterlimit:10; stroke-width:8.12px;"></path>
      <path d="M55.08,47.5c12.08-10.09,27.64-16.17,44.61-16.17,17,0,32.58,6.09,44.67,16.22" style="fill:none; stroke:#57c5dc; stroke-linecap:round; stroke-miterlimit:10; stroke-width:8.12px;"></path>
    </g>
    <g>
      <g id="_Radiale_herhaling_">
        <line x1="99.73" y1="168.31" x2="99.73" y2="164.85" style="fill:none; stroke:#57c5dc; stroke-linecap:round; stroke-miterlimit:10; stroke-width:7px;"></line>
      </g>
      <g id="_Radiale_herhaling_-2">
        <line x1="52.12" y1="148.59" x2="54.57" y2="146.15" style="fill:none; stroke:#57c5dc; stroke-linecap:round; stroke-miterlimit:10; stroke-width:7px;"></line>
      </g>
      <g id="_Radiale_herhaling_-3">
        <line x1="32.4" y1="100.99" x2="35.86" y2="100.99" style="fill:none; stroke:#57c5dc; stroke-linecap:round; stroke-miterlimit:10; stroke-width:7px;"></line>
      </g>
      <g id="_Radiale_herhaling_-4">
        <line x1="52.12" y1="53.38" x2="54.57" y2="55.83" style="fill:none; stroke:#57c5dc; stroke-linecap:round; stroke-miterlimit:10; stroke-width:7px;"></line>
      </g>
      <g id="_Radiale_herhaling_-5">
        <line x1="99.73" y1="33.66" x2="99.73" y2="37.12" style="fill:none; stroke:#57c5dc; stroke-linecap:round; stroke-miterlimit:10; stroke-width:7px;"></line>
      </g>
      <g id="_Radiale_herhaling_-6">
        <line x1="147.33" y1="53.38" x2="144.88" y2="55.83" style="fill:none; stroke:#57c5dc; stroke-linecap:round; stroke-miterlimit:10; stroke-width:7px;"></line>
      </g>
      <g id="_Radiale_herhaling_-7">
        <line x1="167.05" y1="100.99" x2="163.59" y2="100.99" style="fill:none; stroke:#57c5dc; stroke-linecap:round; stroke-miterlimit:10; stroke-width:7px;"></line>
      </g>
      <g id="_Radiale_herhaling_-8">
        <line x1="147.33" y1="148.59" x2="144.88" y2="146.15" style="fill:none; stroke:#57c5dc; stroke-linecap:round; stroke-miterlimit:10; stroke-width:7px;"></line>
      </g>
    </g>
  </g>
</svg>
