<?xml version="1.0" encoding="UTF-8"?>
<svg xmlns="http://www.w3.org/2000/svg" width="300px" height="296px" viewBox="0 0 77 76" fill="none">
  <path d="M44.6343 43.8943L47.2857 41.223C47.8115 40.6933 48.5246 40.3957 49.2682 40.3957C50.0118 40.3957 50.7249 40.6933 51.2507 41.223L59.3228 49.3576C59.8486 49.8873 60.144 50.6057 60.144 51.3548C60.144 52.104 59.8486 52.8224 59.3228 53.3521L50.4229 62.3184C49.763 62.984 48.8173 63.2745 47.9011 63.093L39.0033 71.3017C37.9085 72.3119 36.2219 72.2871 35.1568 71.2452L17.6276 54.0949C17.0891 53.568 16.7829 52.8455 16.7773 52.0893C16.7721 51.333 17.068 50.6062 17.5988 50.0715L32.1998 35.3622C32.7255 34.8325 33.4387 34.5349 34.1822 34.5349C34.9258 34.5349 35.6389 34.8325 36.1647 35.3622L44.6343 43.895V43.8943Z" fill="#0B3656"></path>
  <path d="M44.8182 69.8865C44.7697 69.9379 44.7188 69.9899 44.6679 70.0408C41.377 73.3317 36.0602 73.3515 32.7931 70.0845C32.7426 70.0339 32.693 69.9834 32.644 69.9313L6.91867 44.206C6.86688 44.157 6.8159 44.1072 6.76551 44.0568C3.49848 40.7898 3.51826 35.473 6.80917 32.1821L33.0316 5.95969C36.323 2.66828 41.6398 2.64851 44.9068 5.91553L70.9344 31.9432C74.2015 35.2102 74.1817 40.527 70.8903 43.8184C70.8394 43.8693 70.7879 43.9197 70.736 43.9687L44.8177 69.887L44.8182 69.8865ZM38.7594 62.225L63.0765 37.9079L38.9406 13.772L14.6235 38.0891L38.7594 62.225Z" fill="url(#paint0_linear_101_3)"></path>
  <defs>
    <linearGradient id="paint0_linear_101_3" x1="19.9206" y1="19.0706" x2="57.7793" y2="56.9294" gradientUnits="userSpaceOnUse">
      <stop stop-color="#2DA9C5"></stop>
      <stop offset="1" stop-color="#006AC0"></stop>
    </linearGradient>
  </defs>
</svg>
