<?xml version="1.0" encoding="UTF-8"?><svg id="a" xmlns="http://www.w3.org/2000/svg" viewBox="0 0 159.64 176.81"><defs><style>.c{fill:#fff;}.d{fill:#f7aa0f;}.e{fill:#0063a2;}</style></defs><rect id="b" class="c" width="159.64" height="176.81" rx="46.48" ry="46.48"/><g><path class="e" d="M26.6,153.16c.49-.09,1.13-.13,1.79-.13,1.13,0,1.86,.18,2.42,.61,.61,.45,1,1.19,1,2.24,0,1.13-.41,1.9-.97,2.38-.62,.52-1.57,.76-2.72,.76-.69,0-1.19-.04-1.51-.09v-5.77Zm1.33,4.79c.11,.03,.31,.03,.46,.03,1.21,0,2.01-.65,2.01-2.06,0-1.27-.72-1.87-1.87-1.87-.29,0-.49,.03-.6,.05v3.85Z"/><path class="e" d="M33.52,158.95v-4.27h1.33v4.27h-1.33Zm.65-4.83c-.45,0-.73-.31-.73-.71s.3-.71,.75-.71,.73,.31,.74,.71c0,.39-.29,.71-.75,.71h0Z"/><path class="e" d="M37.81,157.23c.04,.56,.58,.82,1.2,.82,.45,0,.82-.06,1.18-.18l.17,.9c-.44,.18-.97,.27-1.55,.27-1.45,0-2.28-.84-2.28-2.18,0-1.08,.68-2.28,2.16-2.28,1.38,0,1.9,1.07,1.9,2.13,0,.23-.03,.43-.04,.53h-2.75Zm1.56-.92c0-.31-.14-.86-.74-.86-.57,0-.79,.52-.83,.86h1.57Z"/><path class="e" d="M42.26,157.8c.24,.15,.75,.31,1.14,.31s.57-.13,.57-.35-.13-.33-.62-.5c-.89-.29-1.23-.78-1.22-1.27,0-.8,.68-1.41,1.74-1.41,.5,0,.93,.12,1.2,.25l-.23,.91c-.19-.1-.57-.24-.93-.24-.32,0-.51,.13-.51,.34s.17,.31,.69,.5c.81,.27,1.14,.69,1.15,1.31,0,.8-.62,1.39-1.84,1.39-.56,0-1.06-.13-1.38-.31l.24-.94Z"/><path class="e" d="M48.42,153.52v1.16h.95v.98h-.95v1.55c0,.52,.13,.75,.52,.75,.18,0,.27,0,.39-.03v1c-.16,.06-.48,.11-.85,.11-.43,0-.79-.15-1-.37-.24-.25-.37-.66-.37-1.27v-1.75h-.57v-.98h.57v-.8l1.3-.36Z"/><path class="e" d="M57.69,157.44l-.41,1.51h-1.38l1.8-5.88h1.74l1.83,5.88h-1.43l-.45-1.51h-1.69Zm1.49-1l-.37-1.25c-.1-.35-.2-.79-.29-1.14h-.03c-.08,.35-.17,.79-.26,1.14l-.36,1.25h1.3Z"/><path class="e" d="M66.44,157.92c0,.4,.02,.79,.07,1.03h-1.2l-.08-.43h-.03c-.28,.34-.72,.52-1.22,.52-.86,0-1.38-.63-1.38-1.31,0-1.11,1-1.63,2.51-1.63v-.05c0-.23-.12-.55-.78-.55-.44,0-.9,.15-1.18,.31l-.24-.85c.3-.17,.88-.38,1.66-.38,1.42,0,1.87,.84,1.87,1.84v1.49Zm-1.28-.99c-.7,0-1.24,.17-1.24,.67,0,.34,.23,.51,.52,.51,.32,0,.6-.22,.69-.49,.02-.07,.03-.15,.03-.23v-.46Z"/><path class="e" d="M68.38,156.09c0-.63,0-1.04-.03-1.41h1.14l.05,.79h.03c.22-.63,.73-.89,1.15-.89,.12,0,.18,0,.28,.03v1.25c-.11-.02-.22-.03-.37-.03-.49,0-.82,.25-.91,.67-.02,.09-.03,.18-.03,.3v2.16h-1.33v-2.86Z"/><path class="e" d="M72.55,157.8c.24,.15,.75,.31,1.14,.31s.57-.13,.57-.35-.13-.33-.62-.5c-.89-.29-1.23-.78-1.22-1.27,0-.8,.68-1.41,1.74-1.41,.5,0,.93,.12,1.2,.25l-.23,.91c-.19-.1-.57-.24-.93-.24-.32,0-.51,.13-.51,.34s.17,.31,.69,.5c.81,.27,1.14,.69,1.15,1.31,0,.8-.62,1.39-1.84,1.39-.56,0-1.06-.13-1.38-.31l.24-.94Z"/><path class="e" d="M80.42,158.85c-.24,.11-.68,.2-1.19,.2-1.38,0-2.26-.85-2.26-2.19,0-1.25,.86-2.27,2.44-2.27,.35,0,.73,.06,1.01,.17l-.21,.99c-.16-.07-.39-.13-.74-.13-.7,0-1.15,.5-1.14,1.2,0,.79,.52,1.2,1.17,1.2,.31,0,.56-.05,.76-.14l.16,.98Z"/><path class="e" d="M82.03,152.75h1.33v2.44h.02c.14-.19,.31-.34,.52-.45,.2-.1,.45-.17,.69-.17,.85,0,1.49,.58,1.49,1.88v2.49h-1.33v-2.35c0-.56-.19-.94-.69-.94-.35,0-.57,.23-.66,.47-.03,.08-.04,.19-.04,.29v2.53h-1.33v-6.2Z"/><path class="e" d="M89.99,159.05c-1.25,0-2.21-.82-2.21-2.2s.91-2.26,2.29-2.26c1.3,0,2.17,.9,2.17,2.19,0,1.55-1.11,2.27-2.24,2.27h0Zm.03-.95c.52,0,.85-.52,.85-1.28,0-.63-.24-1.27-.85-1.27s-.87,.65-.87,1.28c0,.72,.31,1.27,.86,1.27h0Z"/><path class="e" d="M95.42,153.52v1.16h.95v.98h-.95v1.55c0,.52,.13,.75,.52,.75,.18,0,.27,0,.39-.03v1c-.16,.06-.48,.11-.85,.11-.43,0-.79-.15-1-.37-.24-.25-.37-.66-.37-1.27v-1.75h-.57v-.98h.57v-.8l1.3-.36Z"/><path class="e" d="M104.13,154.19h-1.59v-1.12h4.52v1.12h-1.61v4.77h-1.33v-4.77Z"/><path class="e" d="M108.54,158.95v-4.27h1.33v4.27h-1.33Zm.65-4.83c-.45,0-.73-.31-.73-.71s.3-.71,.75-.71,.73,.31,.74,.71c0,.39-.29,.71-.75,.71h0Z"/><path class="e" d="M112.83,157.23c.04,.56,.59,.82,1.2,.82,.45,0,.82-.06,1.18-.18l.17,.9c-.44,.18-.97,.27-1.55,.27-1.45,0-2.28-.84-2.28-2.18,0-1.08,.68-2.28,2.16-2.28,1.38,0,1.9,1.07,1.9,2.13,0,.23-.03,.43-.04,.53h-2.75Zm1.56-.92c0-.31-.14-.86-.74-.86-.57,0-.79,.52-.83,.86h1.57Z"/><path class="e" d="M117.29,156.05c0-.53-.02-.98-.03-1.36h1.15l.06,.59h.03c.18-.28,.6-.69,1.32-.69,.87,0,1.53,.58,1.53,1.84v2.52h-1.33v-2.37c0-.55-.19-.93-.67-.93-.37,0-.59,.25-.68,.5-.03,.09-.04,.21-.04,.33v2.46h-1.33v-2.91Z"/><path class="e" d="M124.3,157.23c.04,.56,.59,.82,1.21,.82,.45,0,.82-.06,1.18-.18l.17,.9c-.44,.18-.97,.27-1.55,.27-1.45,0-2.28-.84-2.28-2.18,0-1.08,.68-2.28,2.16-2.28,1.38,0,1.9,1.07,1.9,2.13,0,.23-.03,.43-.04,.53h-2.75Zm1.56-.92c0-.31-.14-.86-.74-.86-.57,0-.79,.52-.83,.86h1.57Z"/><path class="e" d="M128.76,156.05c0-.53-.02-.98-.03-1.36h1.15l.06,.59h.03c.17-.28,.6-.69,1.32-.69,.87,0,1.53,.58,1.53,1.84v2.52h-1.33v-2.37c0-.55-.19-.93-.67-.93-.37,0-.58,.25-.68,.5-.03,.09-.04,.21-.04,.33v2.46h-1.33v-2.91Z"/><path class="e" d="M78.81,79.05c-4.6-1.26-9.23,.87-13.43,2.65-4.54,1.93-8.55,5.29-9.78,10.18l-.06,1.61c.03,.45,.19,.89,.47,1.25l1.04,1.11c.19,.11,.37,.22,.56,.33l1.22,.48c.42,.14,.87,.17,1.31,.06l2.28-.58c6.28-1.68,11.68-5.18,15.72-10.62,2.28-3.06,4.1-7.38,.83-10.45-1.17-1.09-2.73-1.43-4.27-1.73-1.2-.28-2.42,.48-2.68,1.68-.28,1.22,.47,2.42,1.68,2.7,.73,.12,1.43,.48,2.21,.36,.92,1.56-.31,3.15-1.22,4.51-1.06,1.64-2.35,2.81-3.71,4.15-2.18,2.18-4.91,3.24-7.66,4.35l-4.27,1.28,1.31,.06-1.39-.64,1.01,.75-.42-.56,.45,1.25,.06-.56c.47-1.17,.76-2.45,1.75-3.31,4.34-3.77,9.81-6.21,15.52-6.22-.02,.05-.02,.09-.03,.14,1.17,.42,2.45-.19,2.87-1.36,.41-1.17-.2-2.45-1.37-2.87h0Z"/><g><path class="d" d="M91.13,91.63c-4.6-1.26-9.23,.87-13.43,2.65-4.54,1.93-8.55,5.29-9.78,10.18l-.06,1.61c.03,.45,.19,.89,.47,1.25l1.04,1.11c.19,.11,.37,.22,.56,.33l1.22,.48c.42,.14,.87,.17,1.31,.06l2.28-.58c6.28-1.68,11.68-5.18,15.72-10.62,2.28-3.06,4.1-7.38,.83-10.45-1.17-1.09-2.73-1.43-4.27-1.73-1.2-.28-2.42,.48-2.68,1.68-.28,1.22,.47,2.42,1.68,2.7,.73,.12,1.43,.48,2.21,.36,.92,1.56-.31,3.15-1.22,4.51-1.06,1.64-2.35,2.81-3.71,4.15-2.18,2.18-4.91,3.24-7.66,4.35l-4.27,1.28,1.31,.06-1.39-.64,1.01,.75-.42-.56,.45,1.25,.06-.56c.47-1.17,.76-2.45,1.75-3.31,4.34-3.77,9.81-6.21,15.52-6.22-.02,.05-.02,.09-.03,.14,1.17,.42,2.45-.19,2.87-1.36,.41-1.17-.2-2.45-1.37-2.87h0Z"/><path class="d" d="M87.98,92.8c-.42,5.26-1.54,10.64,.2,15.81,.36,1.06,1.12,1.9,2.11,2.43,1.01,.7,2.42,.45,3.12-.56,.72-1.01,.47-2.42-.56-3.13-2.31-4.21-.51-9.31-.44-13.88,.19-1.23-.66-2.37-1.87-2.56-1.23-.19-2.37,.66-2.56,1.89h0Z"/></g><path class="e" d="M91.41,83.71c4.48,1.27,9.02-.5,13.31-2.11,3.25-1.24,6.22-2.69,9.27-4.16,1.12-.53,1.6-1.86,1.08-2.99-.53-1.12-1.87-1.61-2.99-1.08-6.05,2.64-12.1,6.44-18.93,6.19-1.16-.48-2.47,.06-2.94,1.2-.48,1.16,.06,2.47,1.2,2.94h0Z"/><path class="e" d="M101.56,105.49c-1.79-3.2-1.21-7.06-1.12-10.55,.1-3.78,.73-7.58,2.21-11.11,2.5-5.99,5.29-11.76,8.56-17.31,.56-1,.19-2.27-.82-2.82-1-.56-2.27-.19-2.82,.82-4.11,7.45-8.42,14.7-10.4,23.31-.55,2.42-.92,4.73-.94,7.12-.01,4.35-.68,9.29,2.01,13.06,.7,.91,2,1.09,2.91,.39s1.09-2,.39-2.91h0Z"/><path class="e" d="M67.55,95.71c8.1-.96,13.4-8.08,15.14-15.88,1.49-6.65,2.55-12.93,2.87-19.52,.03-1.14-.87-2.11-2.01-2.14-1.16-.03-2.11,.87-2.14,2.01-.32,7.73-1.75,15.36-3.98,22.75-2.04,4.24-5.51,8.15-10.45,8.67-1.14,.16-1.94,1.21-1.77,2.34,.16,1.14,1.21,1.94,2.34,1.77h0Z"/><path class="e" d="M55.2,103.84c0,1.14,.94,2.08,2.08,2.08s2.08-.94,2.08-2.08-.94-2.08-2.08-2.08-2.08,.94-2.08,2.08h0Z"/><path class="d" d="M90.55,70.58c0,1.14,.94,2.08,2.08,2.08s2.08-.94,2.08-2.08-.94-2.08-2.08-2.08-2.08,.94-2.08,2.08h0Z"/><path class="e" d="M110.72,107.59c0,1.14,.94,2.08,2.08,2.08s2.08-.94,2.08-2.08-.94-2.08-2.08-2.08-2.08,.94-2.08,2.08h0Z"/><path class="d" d="M99.89,150.27c-1.61,5.37-1.92,11.04-.99,16.56,.05,.45,.47,.78,.92,.73,.47-.05,.78-.47,.73-.94-.95-5.34-.57-10.81,.97-15.99,.1-.45-.19-.9-.64-.99-.45-.1-.88,.17-.99,.62h0Z"/><path class="d" d="M52.64,163.07c-.12-4.44,1.73-8.66,4.21-12.35,.26-.38,.16-.9-.23-1.14-.38-.26-.9-.17-1.16,.21-2.6,3.88-4.61,8.54-4.49,13.29,0,.47,.36,.83,.83,.83s.83-.36,.83-.83h0Z"/><g><path class="d" d="M31.75,128.88c-.36,.19-1.16,.39-2.17,.39-2.67,0-4.29-1.68-4.29-4.24,0-2.77,1.92-4.44,4.49-4.44,1.01,0,1.73,.21,2.05,.37l-.34,1.22c-.4-.17-.95-.32-1.65-.32-1.71,0-2.94,1.07-2.94,3.09,0,1.85,1.09,3.03,2.93,3.03,.62,0,1.27-.12,1.67-.31l.25,1.21Z"/><path class="d" d="M33.88,126.52c.04,1.1,.9,1.57,1.87,1.57,.71,0,1.22-.1,1.68-.27l.22,1.06c-.52,.21-1.25,.39-2.12,.39-1.97,0-3.13-1.22-3.13-3.08,0-1.68,1.02-3.27,2.97-3.27s2.62,1.62,2.62,2.96c0,.29-.02,.51-.05,.65h-4.07Zm2.67-1.07c.01-.56-.24-1.48-1.26-1.48-.95,0-1.35,.86-1.41,1.48h2.67Z"/><path class="d" d="M39.23,124.86c0-.7-.01-1.28-.05-1.81h1.35l.07,.91h.04c.26-.47,.92-1.05,1.93-1.05,1.06,0,2.16,.69,2.16,2.61v3.61h-1.53v-3.43c0-.87-.32-1.53-1.16-1.53-.61,0-1.04,.44-1.2,.9-.05,.14-.06,.32-.06,.5v3.57h-1.55v-4.27Z"/><path class="d" d="M48.06,121.5v1.56h1.46v1.15h-1.46v2.68c0,.74,.2,1.12,.79,1.12,.29,0,.42-.02,.6-.07l.02,1.17c-.22,.09-.62,.16-1.11,.16-.56,0-1.04-.2-1.32-.51-.32-.35-.47-.9-.47-1.7v-2.86h-.87v-1.15h.87v-1.12l1.5-.44Z"/><path class="d" d="M50.68,125.01c0-.82-.01-1.41-.05-1.96h1.33l.05,1.16h.05c.3-.86,1.01-1.3,1.66-1.3,.15,0,.24,.01,.36,.04v1.45c-.12-.02-.26-.05-.45-.05-.74,0-1.24,.47-1.37,1.16-.02,.14-.05,.3-.05,.47v3.14h-1.53v-4.12Z"/><path class="d" d="M60.56,127.31c0,.72,.02,1.32,.05,1.82h-1.35l-.07-.92h-.02c-.26,.44-.86,1.06-1.95,1.06s-2.12-.66-2.12-2.64v-3.57h1.53v3.31c0,1.01,.32,1.66,1.14,1.66,.61,0,1.01-.44,1.17-.82,.05-.14,.09-.3,.09-.47v-3.67h1.53v4.25Z"/><path class="d" d="M62.22,124.86c0-.7-.01-1.28-.05-1.81h1.32l.06,.9h.04c.3-.47,.85-1.04,1.87-1.04,.8,0,1.42,.45,1.68,1.12h.02c.21-.34,.46-.59,.75-.76,.34-.24,.72-.36,1.22-.36,1.01,0,2.03,.69,2.03,2.63v3.58h-1.5v-3.36c0-1.01-.35-1.61-1.09-1.61-.52,0-.91,.37-1.07,.81-.04,.15-.07,.34-.07,.51v3.64h-1.5v-3.52c0-.85-.34-1.45-1.05-1.45-.57,0-.96,.45-1.1,.87-.06,.15-.09,.32-.09,.5v3.59h-1.5v-4.27Z"/><path class="d" d="M77.13,126.75l-.72,2.38h-1.58l2.69-8.41h1.96l2.73,8.41h-1.65l-.76-2.38h-2.67Zm2.41-1.16l-.66-2.07c-.16-.51-.3-1.09-.42-1.57h-.02c-.12,.49-.25,1.07-.4,1.57l-.65,2.07h2.16Z"/><path class="d" d="M83.25,124.86c0-.7-.01-1.28-.05-1.81h1.32l.06,.9h.04c.3-.47,.85-1.04,1.87-1.04,.8,0,1.42,.45,1.68,1.12h.02c.21-.34,.46-.59,.75-.76,.34-.24,.72-.36,1.22-.36,1.01,0,2.03,.69,2.03,2.63v3.58h-1.5v-3.36c0-1.01-.35-1.61-1.09-1.61-.52,0-.91,.37-1.07,.81-.04,.15-.07,.34-.07,.51v3.64h-1.5v-3.52c0-.85-.34-1.45-1.05-1.45-.57,0-.96,.45-1.1,.87-.06,.15-.09,.32-.09,.5v3.59h-1.5v-4.27Z"/><path class="d" d="M93.83,120.27h1.53v3.62h.03c.37-.59,1.04-.97,1.95-.97,1.48,0,2.54,1.23,2.53,3.08,0,2.18-1.38,3.27-2.76,3.27-.79,0-1.48-.3-1.92-1.05h-.03l-.07,.91h-1.31c.03-.41,.05-1.09,.05-1.71v-7.15Zm1.53,6.35c0,.12,.01,.25,.04,.36,.16,.61,.7,1.07,1.36,1.07,.96,0,1.55-.77,1.55-2,0-1.07-.51-1.95-1.53-1.95-.62,0-1.19,.45-1.36,1.12-.02,.11-.05,.25-.05,.4v.99Z"/><path class="d" d="M106.57,127.31c0,.72,.03,1.32,.05,1.82h-1.35l-.07-.92h-.03c-.26,.44-.86,1.06-1.95,1.06s-2.12-.66-2.12-2.64v-3.57h1.53v3.31c0,1.01,.32,1.66,1.14,1.66,.61,0,1.01-.44,1.17-.82,.05-.14,.09-.3,.09-.47v-3.67h1.53v4.25Z"/><path class="d" d="M108.23,120.27h1.55v8.86h-1.55v-8.86Z"/><path class="d" d="M116.15,127.67c0,.55,.03,1.09,.09,1.46h-1.38l-.1-.67h-.04c-.37,.47-1.01,.81-1.8,.81-1.22,0-1.91-.89-1.91-1.81,0-1.53,1.36-2.31,3.61-2.3v-.1c0-.4-.16-1.06-1.24-1.06-.6,0-1.22,.19-1.63,.45l-.3-1c.45-.27,1.24-.54,2.2-.54,1.95,0,2.51,1.23,2.51,2.56v2.2Zm-1.5-1.51c-1.09-.02-2.12,.21-2.12,1.14,0,.6,.39,.87,.87,.87,.61,0,1.06-.4,1.2-.84,.04-.11,.05-.24,.05-.34v-.84Z"/><path class="d" d="M117.77,124.86c0-.7-.01-1.28-.05-1.81h1.35l.07,.91h.04c.26-.47,.92-1.05,1.93-1.05,1.06,0,2.16,.69,2.16,2.61v3.61h-1.53v-3.43c0-.87-.32-1.53-1.16-1.53-.61,0-1.04,.44-1.2,.9-.05,.14-.06,.32-.06,.5v3.57h-1.55v-4.27Z"/><path class="d" d="M126.61,121.5v1.56h1.46v1.15h-1.46v2.68c0,.74,.2,1.12,.79,1.12,.29,0,.42-.02,.6-.07l.02,1.17c-.22,.09-.62,.16-1.11,.16-.56,0-1.04-.2-1.32-.51-.32-.35-.47-.9-.47-1.7v-2.86h-.87v-1.15h.87v-1.12l1.5-.44Z"/><path class="d" d="M130.24,126.52c.04,1.1,.9,1.57,1.87,1.57,.71,0,1.22-.1,1.68-.27l.22,1.06c-.52,.21-1.25,.39-2.12,.39-1.97,0-3.13-1.22-3.13-3.08,0-1.68,1.02-3.27,2.97-3.27s2.62,1.62,2.62,2.96c0,.29-.02,.51-.05,.65h-4.07Zm2.67-1.07c.01-.56-.24-1.48-1.26-1.48-.95,0-1.35,.86-1.41,1.48h2.67Z"/><path class="d" d="M43.87,134.97c.57-.1,1.43-.17,2.32-.17,1.21,0,2.03,.2,2.59,.67,.46,.39,.72,.97,.72,1.68,0,1.09-.74,1.82-1.52,2.11v.04c.6,.22,.96,.81,1.17,1.62,.26,1.05,.49,2.02,.66,2.35h-1.58c-.12-.25-.32-.94-.56-1.98-.24-1.1-.64-1.45-1.51-1.47h-.77v3.46h-1.52v-8.3Zm1.52,3.72h.91c1.04,0,1.68-.55,1.68-1.38,0-.92-.65-1.35-1.65-1.35-.49,0-.8,.04-.95,.07v2.66Z"/><path class="d" d="M52.03,140.66c.04,1.1,.9,1.57,1.87,1.57,.71,0,1.22-.1,1.68-.27l.22,1.06c-.52,.21-1.25,.39-2.12,.39-1.97,0-3.13-1.22-3.13-3.08,0-1.68,1.02-3.27,2.97-3.27s2.62,1.62,2.62,2.96c0,.29-.02,.51-.05,.65h-4.07Zm2.67-1.07c.01-.56-.24-1.48-1.26-1.48-.95,0-1.35,.86-1.41,1.48h2.67Z"/><path class="d" d="M58.32,137.19l.99,3.08c.17,.54,.3,1.02,.41,1.52h.04c.11-.5,.25-.97,.41-1.52l.96-3.08h1.62l-2.32,6.08h-1.51l-2.26-6.08h1.66Z"/><path class="d" d="M68.32,141.81c0,.55,.02,1.09,.09,1.46h-1.38l-.1-.67h-.04c-.37,.47-1.01,.81-1.8,.81-1.22,0-1.91-.89-1.91-1.81,0-1.53,1.36-2.31,3.61-2.3v-.1c0-.4-.16-1.06-1.23-1.06-.6,0-1.22,.19-1.63,.45l-.3-1c.45-.27,1.23-.54,2.2-.54,1.95,0,2.51,1.23,2.51,2.56v2.2Zm-1.5-1.51c-1.09-.02-2.12,.21-2.12,1.14,0,.6,.39,.87,.87,.87,.61,0,1.06-.4,1.2-.84,.04-.11,.05-.24,.05-.34v-.84Z"/><path class="d" d="M69.94,134.41h1.55v8.86h-1.55v-8.86Z"/><path class="d" d="M74.78,135.5c0,.46-.34,.82-.87,.82s-.85-.36-.85-.82,.35-.84,.86-.84,.85,.36,.86,.84Zm-1.63,7.77v-6.08h1.55v6.08h-1.55Z"/><path class="d" d="M81.94,134.41v7.15c0,.62,.02,1.3,.05,1.71h-1.37l-.06-.96h-.02c-.36,.67-1.1,1.1-1.98,1.1-1.45,0-2.59-1.24-2.59-3.11-.01-2.03,1.26-3.24,2.72-3.24,.84,0,1.43,.35,1.71,.8h.02v-3.44h1.53Zm-1.53,5.31c0-.12-.01-.27-.04-.4-.14-.6-.62-1.09-1.32-1.09-.99,0-1.53,.87-1.53,2.01s.55,1.92,1.52,1.92c.62,0,1.17-.42,1.32-1.09,.04-.14,.05-.29,.05-.45v-.91Z"/><path class="d" d="M88.31,141.81c0,.55,.02,1.09,.09,1.46h-1.38l-.1-.67h-.04c-.37,.47-1.01,.81-1.8,.81-1.22,0-1.91-.89-1.91-1.81,0-1.53,1.36-2.31,3.61-2.3v-.1c0-.4-.16-1.06-1.23-1.06-.6,0-1.22,.19-1.63,.45l-.3-1c.45-.27,1.23-.54,2.2-.54,1.95,0,2.51,1.23,2.51,2.56v2.2Zm-1.5-1.51c-1.09-.02-2.12,.21-2.12,1.14,0,.6,.39,.87,.87,.87,.61,0,1.06-.4,1.2-.84,.04-.11,.05-.24,.05-.34v-.84Z"/><path class="d" d="M91.61,135.63v1.56h1.46v1.15h-1.46v2.68c0,.74,.2,1.12,.79,1.12,.29,0,.42-.02,.6-.07l.02,1.17c-.22,.09-.62,.16-1.11,.16-.56,0-1.04-.2-1.32-.51-.32-.35-.47-.9-.47-1.7v-2.86h-.87v-1.15h.87v-1.12l1.5-.44Z"/><path class="d" d="M95.87,135.5c0,.46-.34,.82-.87,.82s-.85-.36-.85-.82,.35-.84,.86-.84,.85,.36,.86,.84Zm-1.63,7.77v-6.08h1.55v6.08h-1.55Z"/><path class="d" d="M98.51,140.66c.04,1.1,.9,1.57,1.87,1.57,.71,0,1.22-.1,1.68-.27l.22,1.06c-.52,.21-1.25,.39-2.12,.39-1.97,0-3.13-1.22-3.13-3.08,0-1.68,1.02-3.27,2.97-3.27s2.62,1.62,2.62,2.96c0,.29-.02,.51-.05,.65h-4.07Zm2.67-1.07c.01-.56-.24-1.48-1.26-1.48-.95,0-1.35,.86-1.41,1.48h2.67Z"/><path class="e" d="M106.78,140.23l.49,1.54c.09,.27,.15,.51,.21,.76h.02c.06-.25,.12-.49,.21-.76l.48-1.54h.81l-1.16,3.04h-.75l-1.13-3.04h.83Z"/><path class="e" d="M109.56,143.34c-.27,0-.47-.21-.47-.49s.2-.49,.47-.49,.47,.2,.47,.49-.19,.49-.47,.49h0Z"/><path class="e" d="M110.37,142.83l1.14-1.46c.16-.19,.29-.34,.45-.51h-1.48v-.62h2.41v.47l-1.12,1.43c-.15,.18-.29,.36-.45,.52h1.6v.62h-2.56v-.44Z"/><path class="e" d="M113.84,143.34c-.27,0-.47-.21-.47-.49s.2-.49,.47-.49,.47,.2,.47,.49-.19,.49-.47,.49h0Z"/><path class="e" d="M115.4,140.23l.32,1.38c.07,.32,.14,.66,.19,.99h.01c.06-.33,.16-.67,.25-.98l.39-1.38h.62l.38,1.35c.09,.36,.18,.69,.24,1.02h.01c.05-.33,.12-.66,.2-1.02l.34-1.35h.75l-.95,3.04h-.71l-.36-1.24c-.09-.32-.16-.6-.23-.97h-.01c-.06,.37-.14,.67-.23,.97l-.39,1.24h-.72l-.9-3.04h.79Z"/></g></g></svg>