<svg xmlns="http://www.w3.org/2000/svg" width="22.771" height="22.8" viewBox="0 0 22.771 22.8"><path d="M3.315,7.42a1.678,1.678,0,0,1,.427-.911L7.158,3.093q.4-.342.6.114l2.761,5.181a.745.745,0,0,1-.142.882L9.122,10.523a1.417,1.417,0,0,0-.4.882A4.346,4.346,0,0,0,9.606,13.6a18.719,18.719,0,0,0,1.737,2.278l.882.91c.266.266.607.593,1.026.982a17.187,17.187,0,0,0,2.063,1.537,4.618,4.618,0,0,0,2.263.954,1.239,1.239,0,0,0,.911-.37l1.481-1.48a.626.626,0,0,1,.853-.114l4.983,2.932a.416.416,0,0,1,.228.3.364.364,0,0,1-.114.327L22.5,25.269a1.673,1.673,0,0,1-.91.426,6.887,6.887,0,0,1-3.147-.384A14.236,14.236,0,0,1,15.2,23.76q-1.495-.967-2.776-1.963t-2.05-1.708l-.74-.713q-.284-.284-.754-.783T7.244,16.63a28.59,28.59,0,0,1-2.021-2.861,16.69,16.69,0,0,1-1.48-3.174A6.752,6.752,0,0,1,3.315,7.42Z" transform="translate(-3.267 -2.947)" fill="#c8e6f9"/></svg>