<svg xmlns="http://www.w3.org/2000/svg" width="23" height="23" viewBox="0 0 23 23"><g transform="translate(-8995.066 3602.934)"><circle cx="11.5" cy="11.5" r="11.5" transform="translate(8995.066 -3602.934)" fill="#c8e6f9"/><path d="M6.751,5.528A3.463,3.463,0,1,0,10.213,8.99,3.457,3.457,0,0,0,6.751,5.528Zm0,5.714A2.251,2.251,0,1,1,9,8.99,2.255,2.255,0,0,1,6.751,11.242Zm4.412-5.855a.808.808,0,1,1-.808-.808A.806.806,0,0,1,11.162,5.386Zm2.293.82a4,4,0,0,0-1.091-2.83,4.023,4.023,0,0,0-2.83-1.091c-1.115-.063-4.457-.063-5.572,0a4.017,4.017,0,0,0-2.83,1.088A4.01,4.01,0,0,0,.042,6.2c-.063,1.115-.063,4.457,0,5.572A4,4,0,0,0,1.133,14.6,4.028,4.028,0,0,0,3.963,15.7c1.115.063,4.457.063,5.572,0a4,4,0,0,0,2.83-1.091,4.023,4.023,0,0,0,1.091-2.83c.063-1.115.063-4.454,0-5.569Zm-1.441,6.766a2.279,2.279,0,0,1-1.284,1.284,14.884,14.884,0,0,1-3.981.271,15,15,0,0,1-3.981-.271,2.279,2.279,0,0,1-1.284-1.284A14.884,14.884,0,0,1,1.214,8.99a15,15,0,0,1,.271-3.981A2.279,2.279,0,0,1,2.77,3.726a14.884,14.884,0,0,1,3.981-.271,15,15,0,0,1,3.981.271,2.279,2.279,0,0,1,1.284,1.284,14.884,14.884,0,0,1,.271,3.981A14.876,14.876,0,0,1,12.015,12.971Z" transform="translate(8999.619 -3600.623)" fill="#0067a8"/></g></svg>