<svg xmlns="http://www.w3.org/2000/svg" width="22.543" height="16.907" viewBox="0 0 22.543 16.907"><path d="M22.116,10.083a.265.265,0,0,1,.427.207v9a2.114,2.114,0,0,1-2.113,2.113H2.113A2.114,2.114,0,0,1,0,19.294v-9a.263.263,0,0,1,.427-.207c.986.766,2.294,1.739,6.785,5,.929.678,2.5,2.1,4.059,2.1,1.572.013,3.17-1.444,4.064-2.1C19.826,11.826,21.13,10.849,22.116,10.083ZM11.271,15.771c1.021.018,2.492-1.286,3.232-1.823,5.843-4.24,6.287-4.61,7.635-5.667a1.054,1.054,0,0,0,.405-.832V6.613A2.114,2.114,0,0,0,20.43,4.5H2.113A2.114,2.114,0,0,0,0,6.613V7.45a1.06,1.06,0,0,0,.405.832C1.752,9.334,2.2,9.709,8.04,13.949,8.779,14.486,10.25,15.789,11.271,15.771Z" transform="translate(0 -4.5)" fill="#c8e6f9"/></svg>