<?xml version="1.0" encoding="UTF-8"?>
<svg id="a" xmlns="http://www.w3.org/2000/svg" viewBox="0 0 22.76 22.79"><defs><style>.c{fill:#c8e6f9;}</style></defs><path id="b" class="c" d="M.04,4.47c.05-.34,.19-.66,.43-.91L3.88,.15c.27-.23,.47-.19,.6,.11l2.76,5.18c.15,.29,.1,.65-.14,.88l-1.26,1.25c-.23,.24-.37,.55-.4,.88,.09,.8,.39,1.56,.88,2.2,.52,.8,1.1,1.56,1.74,2.28l.88,.91c.27,.27,.61,.59,1.03,.98,.65,.56,1.34,1.08,2.06,1.54,.65,.52,1.44,.85,2.26,.95,.34,0,.67-.13,.91-.37l1.48-1.48c.21-.26,.58-.31,.85-.11l4.98,2.93c.12,.06,.2,.17,.23,.3,.02,.12-.02,.24-.11,.33l-3.42,3.41c-.25,.23-.57,.38-.91,.43-1.06,.12-2.14-.01-3.15-.38-1.14-.38-2.23-.9-3.24-1.55-1-.64-1.92-1.3-2.78-1.96-.85-.66-1.54-1.23-2.05-1.71l-.74-.71c-.19-.19-.44-.45-.75-.78-.31-.33-.86-.99-1.64-1.96-.73-.91-1.41-1.87-2.02-2.86-.6-1-1.1-2.07-1.48-3.17C.07,6.64-.08,5.55,.04,4.47Z"/></svg>