<svg width="590" height="588" fill="none" xmlns="http://www.w3.org/2000/svg">
    <path fill="currentColor"
    d="M387.166.053c4.635-.073 8.963-.069 12.917 0h-12.917c-53.58.836-148.26 11.893-182.304 52.28-36.989 43.883 15.983 107.42 47.093 133.703 14.555 14.856 32.365 52.967-12.845 86.564-45.209 33.597-63.371-11.999-104.46-6-44.532 3.429-75.36 56.995-48.805 94.278 62.717 88.056 147.557 90.277 174.671 86.563 50.233-4.857 148.473.172 139.567 59.138-8.906 58.966 122.44 78.85 189.226 81.421H0V.053h387.166Z" />
</svg>
