<?xml version="1.0" encoding="UTF-8"?>
<svg preserveAspectRatio="xMidYMid slice" width="34px" height="34px" xmlns="http://www.w3.org/2000/svg" xmlns:xlink="http://www.w3.org/1999/xlink" version="1.1" id="a" x="0px" y="0px" viewBox="0 0 200 200" style="enable-background:new 0 0 200 200;" xml:space="preserve">
<style type="text/css">
	.st0{enable-background:new    ;}
	.st1{fill:#0067A8;}
	.st2{fill:none;stroke:#57C5DC;stroke-width:8.12;stroke-linecap:round;stroke-miterlimit:10;}
	.st3{fill:none;stroke:#57C5DC;stroke-width:7;stroke-linecap:round;stroke-miterlimit:10;}
</style>
<g class="st0">
	<path class="st1" d="M71.3,115.2h-7.5v-6.4h-6.4v6.4h-7.5V95.2c0-5.5,0.9-11.4,10.7-11.4c9.9,0,10.7,5.9,10.7,11.4V115.2z    M63.8,95.2c0-2.1-0.3-3.2-3.2-3.2c-2.9,0-3.2,1.1-3.2,3.2v6.1h6.4V95.2z"></path>
	<path class="st1" d="M86.6,84.5c8.2,0,11,3.3,11,10.5v9.6c0,7.2-2.7,10.6-11,10.6H75.5V84.5H86.6z M86.7,107.7c2.1,0,3.2-0.4,3.2-3   c0,0,0-9.6,0-9.6c0-2.7-1.1-3-3.2-3H83v15.6H86.7z"></path>
	<path class="st1" d="M109,84.5v13.6h6.8V84.5h7.5v30.7h-7.5v-9.6H109v9.6h-7.5V84.5H109z"></path>
	<path class="st1" d="M138.9,84.5c8.2,0,11,3.3,11,10.5v9.6c0,7.2-2.7,10.6-11,10.6h-11.1V84.5H138.9z M139,107.7   c2.1,0,3.2-0.4,3.2-3c0,0,0-9.6,0-9.6c0-2.7-1.1-3-3.2-3h-3.7v15.6H139z"></path>
</g>
<g>
	<g>
		<path class="st2" d="M144.4,47.6c15.2,12.8,25,32,25,53.4c0,38.5-31.2,69.6-69.6,69.6S30.1,139.5,30.1,101    c0-21.5,9.7-40.7,25-53.5"></path>
		<path class="st2" d="M55.1,47.5c12.1-10.1,27.6-16.2,44.6-16.2c17,0,32.6,6.1,44.7,16.2"></path>
	</g>
	<g>
		<g id="b">
			<line class="st3" x1="99.7" y1="168.3" x2="99.7" y2="164.9"></line>
		</g>
		<g id="c">
			<line class="st3" x1="52.1" y1="148.6" x2="54.6" y2="146.1"></line>
		</g>
		<g id="d">
			<line class="st3" x1="32.4" y1="101" x2="35.9" y2="101"></line>
		</g>
		<g id="e">
			<line class="st3" x1="52.1" y1="53.4" x2="54.6" y2="55.8"></line>
		</g>
		<g id="f">
			<line class="st3" x1="99.7" y1="33.7" x2="99.7" y2="37.1"></line>
		</g>
		<g id="g">
			<line class="st3" x1="147.3" y1="53.4" x2="144.9" y2="55.8"></line>
		</g>
		<g id="h">
			<line class="st3" x1="167.1" y1="101" x2="163.6" y2="101"></line>
		</g>
		<g id="i">
			<line class="st3" x1="147.3" y1="148.6" x2="144.9" y2="146.1"></line>
		</g>
	</g>
</g>
</svg>
