<?xml version="1.0" encoding="UTF-8"?>
<svg preserveAspectRatio="xMidYMid slice" width="34px" height="34px" xmlns="http://www.w3.org/2000/svg" id="Laag_1" viewBox="0 0 200 200">
  <g>
    <path d="M100,63.51c0-11.7-9.49-21.19-21.19-21.19s-21.19,9.49-21.19,21.19,9.49,21.19,21.19,21.19" style="fill:none; stroke:#57c5dc; stroke-linecap:round; stroke-linejoin:round; stroke-width:7px;"></path>
    <path d="M77.8,142.08c-11.69,.56-20.71,10.49-20.16,22.18,.56,11.69,10.49,20.71,22.18,20.16,11.69-.56,20.71-10.49,20.16-22.18" style="fill:none; stroke:#57c5dc; stroke-linecap:round; stroke-linejoin:round; stroke-width:7px;"></path>
    <path d="M57.62,62.02c-4.34-.55-8.9,.23-13.01,2.53-10.21,5.72-13.85,18.63-8.14,28.84s18.63,13.85,28.84,8.14" style="fill:none; stroke:#57c5dc; stroke-linecap:round; stroke-linejoin:round; stroke-width:7px;"></path>
    <path d="M51.12,118.46c-4.34-.55-8.9,.23-13.01,2.53-10.21,5.72-13.85,18.63-8.14,28.84s18.63,13.85,28.84,8.14" style="fill:none; stroke:#57c5dc; stroke-linecap:round; stroke-linejoin:round; stroke-width:7px;"></path>
    <path d="M35.15,90.99c-1.68,.45-3.34,1.11-4.93,2-10.21,5.72-13.85,18.63-8.14,28.84,1.43,2.55,3.31,4.7,5.48,6.38" style="fill:none; stroke:#57c5dc; stroke-linecap:round; stroke-linejoin:round; stroke-width:7px;"></path>
    <path d="M100,63.67c0-11.7,9.49-21.19,21.19-21.19,11.7,0,21.19,9.49,21.19,21.19s-9.49,21.19-21.19,21.19" style="fill:none; stroke:#57c5dc; stroke-linecap:round; stroke-linejoin:round; stroke-width:7px;"></path>
    <path d="M122.2,142.25c11.69,.56,20.71,10.49,20.16,22.18-.56,11.69-10.49,20.71-22.18,20.16-11.69-.56-20.71-10.49-20.16-22.18" style="fill:none; stroke:#57c5dc; stroke-linecap:round; stroke-linejoin:round; stroke-width:7px;"></path>
    <path d="M142.38,62.18c4.34-.55,8.9,.23,13.01,2.53,10.21,5.72,13.85,18.63,8.14,28.84-5.72,10.21-18.63,13.85-28.84,8.14" style="fill:none; stroke:#57c5dc; stroke-linecap:round; stroke-linejoin:round; stroke-width:7px;"></path>
    <path d="M148.88,118.62c4.34-.55,8.9,.23,13.01,2.53,10.21,5.72,13.85,18.63,8.14,28.84s-18.63,13.85-28.84,8.14" style="fill:none; stroke:#57c5dc; stroke-linecap:round; stroke-linejoin:round; stroke-width:7px;"></path>
    <path d="M164.85,91.15c1.68,.45,3.34,1.11,4.93,2,10.21,5.72,13.85,18.63,8.14,28.84-1.43,2.55-3.31,4.7-5.48,6.38" style="fill:none; stroke:#57c5dc; stroke-linecap:round; stroke-linejoin:round; stroke-width:7px;"></path>
    <line x1="100" y1="63.51" x2="100" y2="163.58" style="fill:none; stroke:#57c5dc; stroke-linecap:round; stroke-linejoin:round; stroke-width:7px;"></line>
  </g>
  <path d="M26.83,32.63c-1.46,2.47-2.74,5.53-1.53,7.66,1.92,3.39,8.47,1.45,10.89,4.93,1.07,1.54,1.47,4.35-1.19,9.87" style="fill:none; stroke:#0067a8; stroke-linecap:round; stroke-linejoin:round; stroke-width:6.02px;"></path>
  <path d="M178.43,39.63c-.09,2.87-.65,6.14-2.81,7.28-3.44,1.83-7.93-3.32-11.84-1.67-1.73,.73-3.57,2.88-4.28,8.97" style="fill:none; stroke:#0067a8; stroke-linecap:round; stroke-linejoin:round; stroke-width:6.02px;"></path>
  <path d="M118.16,15.02c.28,7.14-1.3,9.51-2.86,10.32-3.41,1.75-7.87-3.39-11.84-1.67-2.91,1.26-3.9,5.49-4.28,8.97" style="fill:none; stroke:#0067a8; stroke-linecap:round; stroke-linejoin:round; stroke-width:6.02px;"></path>
</svg>
