<?xml version="1.0" encoding="UTF-8"?>
<svg preserveAspectRatio="xMidYMid slice" width="34px" height="34px" xmlns="http://www.w3.org/2000/svg" id="Laag_1" viewBox="0 0 200 200">
  <path d="M134.25,27.49c6.42,2.95,9.23,10.54,6.28,16.96-2.95,6.42-10.54,9.23-16.96,6.28" style="fill:none; stroke:#57c5dc; stroke-linecap:round; stroke-miterlimit:10; stroke-width:8.12px;"></path>
  <path d="M151.18,55.68c8.66,9.39,14.78,21.18,17.24,34.25,.4-.03,.8-.04,1.21-.04,10.61,0,19.21,8.6,19.21,19.22s-8.6,19.21-19.21,19.21c-1.58,0-3.11-.19-4.58-.55-10.02,26.16-35.37,44.74-65.05,44.74s-55.03-18.58-65.05-44.74c-1.47,.36-3,.55-4.58,.55-10.61,0-19.21-8.6-19.21-19.21s8.6-19.22,19.21-19.22c.41,0,.81,0,1.21,.04,6.07-32.27,34.4-56.68,68.42-56.68,9.1,0,17.8,1.75,25.77,4.92" style="fill:none; stroke:#57c5dc; stroke-linecap:round; stroke-miterlimit:10; stroke-width:8.12px;"></path>
  <g>
    <circle cx="74.34" cy="96.94" r="9.74" style="fill:#0067a8;"></circle>
    <circle cx="125.66" cy="96.94" r="9.74" style="fill:#0067a8;"></circle>
  </g>
  <path d="M122.48,126.34c-1.46,9.62-10.96,17.04-22.48,17.04s-21-7.41-22.47-17.01" style="fill:none; stroke:#0067a8; stroke-linecap:round; stroke-miterlimit:10; stroke-width:9.14px;"></path>
</svg>
