<svg xmlns="http://www.w3.org/2000/svg" viewBox="0 0 18.5 18.5" style="enable-background:new 0 0 18.5 18.5" xml:space="preserve">
    <path d="M2.8 18.5c-.8 0-1.5-.3-2-.8-1-1-1.3-2.8.2-4.2l4.9-4.9V6.3C5.9 2.7 8.6 0 12.2 0c1 0 1.6.3 1.8.8.1.3.2.9-.6 1.7l-2.1 2.1 2.6 2.6L16 5.1c.6-.6 1.2-1.2 1.8-.9.5.2.7.8.7 2.1 0 3.6-2.7 6.3-6.3 6.3H9.9c-1.6 1.5-3.5 3.5-4.9 4.9-.7.7-1.5 1-2.2 1zM12.2 1c-3 0-5.3 2.2-5.3 5.3V9l-.2.2-5 5c-1 1-.8 2.1-.2 2.8.7.7 1.8.9 2.8-.2l5-5 .1-.1h2.7c3.1-.1 5.3-2.3 5.3-5.3 0-.7-.1-1-.1-1.1-.2.1-.5.5-.7.6l-2.5 2.5-.4.4-4-4 .4-.4 2.5-2.5c.4-.4.4-.6.4-.6.1-.1-.1-.3-.8-.3z"/>
</svg>
