<svg xmlns="http://www.w3.org/2000/svg" viewBox="0 0 27.4 27.4" style="enable-background:new 0 0 27.4 27.4" xml:space="preserve">
    <path d="M18.3 13.7c0-1.3-.4-2.3-1.3-3.2-.9-.9-2-1.3-3.2-1.3s-2.3.4-3.2 1.3-1.3 2-1.3 3.2.4 2.3 1.3 3.2c.9.9 2 1.3 3.2 1.3 1.3 0 2.3-.4 3.2-1.3.8-.8 1.3-1.9 1.3-3.2zm2.4 0c0 2-.7 3.6-2.1 5-1.4 1.4-3 2.1-5 2.1s-3.6-.7-5-2.1-2.1-3-2.1-5 .7-3.6 2.1-5 3-2.1 5-2.1 3.6.7 5 2.1c1.5 1.4 2.1 3.1 2.1 5zm2-7.3c0 .5-.2.8-.5 1.2-.3.3-.7.4-1.2.4s-.8-.2-1.2-.5c-.3-.3-.5-.7-.5-1.2s.2-.8.5-1.2c.3-.3.7-.5 1.2-.5s.8.2 1.2.5c.3.5.5.8.5 1.3zm-9-3.9h-3.3c-.4 0-1 0-1.7.1s-1.3 0-1.8.1-.9.2-1.3.3c-.6.3-1.1.6-1.5 1.1-.5.4-.8.9-1.1 1.5-.1.4-.2.8-.3 1.3-.1.5-.2 1.1-.2 1.8s0 1.3-.1 1.7V17c0 .4 0 1 .1 1.7s.1 1.3.2 1.8.2 1 .3 1.3c.2.6.6 1.1 1 1.6s1 .8 1.6 1c.3.1.8.2 1.3.3.5.1 1.1.1 1.8.2.7 0 1.3 0 1.7.1s1.1 0 1.9 0H17c.4 0 1 0 1.7-.1.7 0 1.3-.1 1.8-.2s.9-.2 1.3-.3c.6-.2 1.1-.6 1.6-1s.8-1 1-1.6c.1-.3.2-.8.3-1.3.1-.5.1-1.1.2-1.8 0-.7 0-1.3.1-1.7s0-1.1 0-1.9V10.4c0-.4 0-1-.1-1.7 0-.7-.1-1.3-.2-1.8s-.2-.9-.3-1.3c-.2-.6-.6-1.1-1-1.6-.5-.5-1-.8-1.6-1-.3-.1-.8-.2-1.3-.3s-1.1-.1-1.8-.2-1.3 0-1.7-.1-1.1 0-1.9 0-1.3.1-1.4.1zm13.7 11.2c0 2.7 0 4.6-.1 5.7-.1 2.5-.9 4.4-2.2 5.8-1.4 1.4-3.3 2.1-5.8 2.2-1 .1-2.9.1-5.7.1-2.7 0-4.6 0-5.7-.1-2.5-.1-4.4-.9-5.7-2.2C.8 23.8.1 21.9 0 19.4v-5.7C0 11 0 9.1.1 8c.1-2.5.9-4.4 2.2-5.7S5.6.2 8 .1C9.1 0 11 0 13.7 0s4.6 0 5.7.1c2.5.1 4.4.9 5.8 2.2s2.1 3.3 2.2 5.7v5.7z"/>
</svg>
