<svg xmlns="http://www.w3.org/2000/svg" viewBox="0 0 120 83" style="enable-background:new 0 0 120 83" xml:space="preserve">
    <path d="M94.1 83c-7.5 0-13.8-2.6-18.8-7.8-4.9-5.3-7.3-12.8-7.3-22.6 0-9 1.7-16.9 5.1-23.8 3.4-6.9 7.7-12.8 12.8-17.6C91 6.4 96.2 2.6 101.4 0l9 10.4c-2.8 1.2-6.1 3.3-9.7 6.6-3.5 3.1-6.7 6.7-9.4 10.9-2.6 4-4 8.1-4.3 12.3 1-1.4 2.8-2.5 5.3-3.5 2.5-.9 5.1-1.4 7.9-1.4 5.1 0 9.7 1.9 13.7 5.7 4.1 3.7 6.1 8.9 6.1 15.7 0 8.1-2.5 14.5-7.5 19.3-4.9 4.6-11 7-18.4 7zm-68 0c-7.5 0-13.8-2.6-18.8-7.8C2.4 69.9 0 62.4 0 52.6c0-9 1.7-16.9 5.1-23.8 3.4-6.9 7.7-12.8 12.8-17.6C23 6.4 28.2 2.6 33.5 0l9 10.4c-2.8 1.2-6.1 3.3-9.7 6.6-3.5 3.1-6.7 6.7-9.4 10.9-2.6 4-4 8.1-4.3 12.3 1-1.4 2.8-2.5 5.3-3.5 2.5-.9 5.1-1.4 7.9-1.4 5.1 0 9.7 1.9 13.7 5.7 4.1 3.7 6.1 8.9 6.1 15.7 0 8.1-2.5 14.5-7.5 19.3-4.9 4.6-11.1 7-18.5 7z"/>
</svg>
