<svg xmlns="http://www.w3.org/2000/svg" viewBox="0 0 20 20" style="enable-background:new 0 0 20 20" xml:space="preserve">
    <path d="m10.1 17 2.8-2.8-2.8-2.8-1.1 1 1.1 1.1c-.5 0-.9-.1-1.4-.2-.4-.2-.8-.4-1.2-.8-.3-.3-.6-.7-.8-1.2-.2-.4-.3-.9-.3-1.3 0-.3 0-.6.1-.8.1-.3.2-.6.3-.8l-1-1.2c-.3.5-.5.9-.6 1.4-.1.4-.2.9-.2 1.4 0 .6.1 1.3.4 1.9S6 13 6.5 13.5s1 .8 1.6 1.1 1.2.4 1.8.4l-.9.9 1.1 1.1zm4.1-4.2c.3-.4.5-.9.6-1.3.1-.5.2-1 .2-1.5 0-.6-.1-1.3-.4-1.9-.2-.6-.6-1.2-1.1-1.7s-1-.8-1.6-1.1c-.6-.2-1.2-.3-1.8-.3l.9-1-1.1-1-2.8 2.8 2.8 2.8 1.1-1-1.1-1.1c.5 0 .9.1 1.4.3.5.2.9.4 1.2.8.3.3.6.7.8 1.2.2.4.3.9.3 1.3 0 .3 0 .6-.1.8-.1.3-.2.6-.3.8l1 1.1zM10 20c-1.4 0-2.7-.3-3.9-.8S3.8 18 2.9 17.1s-1.6-2-2.1-3.2S0 11.4 0 10s.3-2.7.8-3.9S2 3.8 2.9 2.9s2-1.6 3.2-2.1S8.6 0 10 0s2.7.3 3.9.8 2.3 1.2 3.2 2.1c.9.9 1.6 2 2.1 3.2s.8 2.5.8 3.9-.3 2.7-.8 3.9-1.2 2.3-2.1 3.2c-.9.9-2 1.6-3.2 2.1s-2.5.8-3.9.8zm0-2c2.2 0 4.1-.8 5.7-2.3S18 12.2 18 10s-.8-4.1-2.3-5.7S12.2 2 10 2s-4.1.8-5.7 2.3S2 7.8 2 10s.8 4.1 2.3 5.7S7.8 18 10 18z"/>
</svg>
