<svg xmlns="http://www.w3.org/2000/svg" viewBox="0 0 18.4 24.1" style="enable-background:new 0 0 18.4 24.1" xml:space="preserve">
    <path d="M.6 24.1c-.3 0-.6-.3-.6-.6V6.3c0-.3.3-.6.6-.6h2.1c.3 0 .6.3.6.6s-.3.6-.6.6H1.2v16h16v-16h-1.6c-.3 0-.6-.3-.6-.6s.3-.6.6-.6h2.1c.3 0 .6.3.6.6v17.2c0 .3-.3.6-.6.6H.6M11.2 5.7h-4c-.3 0-.6.3-.6.6s.3.6.6.6h3.9c.3 0 .6-.3.6-.6.1-.3-.2-.6-.5-.6zM5 9.8c.7 0 1.2-.5 1.2-1.2 0-.4-.2-.8-.6-1V4.8c0-2 1.6-3.6 3.6-3.6s3.6 1.6 3.6 3.6v2.7c-.6.3-.8 1.1-.4 1.6s1 .9 1.6.5c.6-.3.8-1.1.4-1.6-.1-.2-.3-.3-.4-.4V4.8C14 2.2 11.8 0 9.2 0 6.5 0 4.4 2.2 4.4 4.8v2.7c-.6.4-.8 1.1-.5 1.7.3.4.7.6 1.1.6"/>
</svg>
