<svg xmlns="http://www.w3.org/2000/svg" viewBox="0 0 17.5 15.8" style="enable-background:new 0 0 17.5 15.8" xml:space="preserve">
    <path d="M16.8 11.2H5.2l.6-1.2h9.7c.3 0 .6-.2.7-.6l1.3-7.5c0-.2 0-.4-.1-.6l-.2-.2c-.1 0-.2-.1-.3-.1H4.5L4.4.5C4.3.2 4 0 3.7 0h-3C.5 0 .3.1.2.2.1.3 0 .5 0 .7s.1.3.2.5c.1.1.3.2.5.2h2.5l.5 2.2 1.1 5.5-1.5 2.4c-.1.1-.1.2-.1.4 0 .1 0 .3.1.4.1.2.4.4.6.4h1.2c-.3.3-.4.8-.4 1.2 0 1.1.9 2 2 2s2-.9 2-2c0-.4-.1-.9-.4-1.2h3.1c-.3.3-.4.8-.4 1.2 0 1.1.9 2 2 2s2-.9 2-2c0-.4-.1-.9-.4-1.2h2.2c.4 0 .7-.3.7-.7 0-.2-.1-.4-.2-.5s-.3-.3-.5-.3zm-12-8.8H16l-1.1 6.2H6.1L4.8 2.4zm1.9 12c-.3 0-.6-.3-.6-.6s.3-.6.6-.6.6.3.6.6c0 .2-.1.3-.2.4-.1.1-.3.2-.4.2zm6.3 0c-.3 0-.6-.3-.6-.6s.3-.6.6-.6.6.3.6.6c0 .2-.1.3-.2.4-.1.1-.2.2-.4.2z"/>
</svg>
