<svg xmlns="http://www.w3.org/2000/svg" viewBox="0 0 651.4 749.7" style="enable-background:new 0 0 651.4 749.7" xml:space="preserve">
    <path d="M342.1.6c41-.6 81.6-.3 122.2-.6 1.4 50.8 21.9 96.5 54.7 130.3h-.1c35.3 31.8 81.2 52.4 131.8 55.9l.7.1v125.9C603.6 311 558.6 300 518.1 281l2.1.9c-19.6-9.4-36.2-19.1-51.9-29.9l1.3.9c-.3 91.2.3 182.4-.6 273.4-2.6 46.3-18 88.6-42.7 123.9l.5-.8c-41.3 59.1-108.2 98-184.3 100.3h-.3c-3.1.1-6.7.2-10.3.2-43.2 0-83.7-12-118.1-33l1 .6C52 679.5 8.7 615 .7 539.9l-.1-1c-.6-15.6-.9-31.2-.3-46.5 12.2-119.5 112.3-211.9 234-211.9 13.7 0 27.1 1.2 40.1 3.4l-1.4-.2c.6 46.2-1.2 92.5-1.2 138.7-10.6-3.8-22.8-6.1-35.5-6.1-46.7 0-86.4 29.9-101.1 71.5l-.2.8c-3.3 10.7-5.2 22.9-5.2 35.7 0 5.1.3 10.2.9 15.2v-.6c8.3 51.2 52.2 89.8 105 89.8 1.5 0 3 0 4.5-.1h-.2c36.6-1.1 68.3-20.8 86.3-49.8l.2-.5c6.7-9.3 11.2-20.5 12.8-32.8v-.3c3.1-55.9 1.9-111.5 2.2-167.5.3-125.9-.3-251.5.6-377.1z"/>
</svg>
