<svg xmlns="http://www.w3.org/2000/svg" viewBox="0 0 22 19" style="enable-background:new 0 0 22 19" xml:space="preserve">
    <path d="M11 4c2.8 0 5 2.2 5 5 0 .6-.1 1.3-.4 1.8l2.9 2.9c1.5-1.3 2.7-2.9 3.4-4.8-1.7-4.4-6-7.5-11-7.5-1.4 0-2.7.2-4 .7l2.2 2.2c.6-.2 1.3-.3 1.9-.3zM1 1.3l2.3 2.3.4.4C2.1 5.3.8 7 0 9c1.7 4.4 6 7.5 11 7.5 1.6 0 3-.3 4.4-.8l.4.4 2.9 2.9 1.3-1.3L2.3 0 1 1.3zm5.5 5.5L8 8.4V9c0 1.7 1.3 3 3 3 .2 0 .4 0 .6-.1l1.6 1.5c-.7.4-1.4.6-2.2.6-2.8 0-5-2.2-5-5 0-.8.2-1.5.5-2.2zm4.3-.8L14 9.2V9c0-1.7-1.3-3-3-3h-.2z"/>
</svg>
