<svg xmlns="http://www.w3.org/2000/svg" viewBox="0 0 26.5 32" style="enable-background:new 0 0 26.5 32" xml:space="preserve">
    <path d="M16.9 22.2V26c0 .8-.2 1.2-.7 1.2-.3 0-.5-.1-.8-.4v-5.4c.3-.3.5-.4.8-.4.4 0 .7.4.7 1.2zm6 0v.8h-1.6v-.8c0-.8.3-1.2.8-1.2s.8.4.8 1.2zM5.6 18.3h1.9v-1.7H2v1.7h1.9v10.2h1.8l-.1-10.2zm5.2 10.2h1.6v-8.8h-1.6v6.8c-.4.5-.7.8-1 .8-.2 0-.3-.1-.4-.4v-7.1H7.8v7c0 .6 0 1 .1 1.3.1.4.5.7 1 .7.6 0 1.2-.4 1.8-1.1v.8h.1zm7.6-2.6v-3.5c0-.9-.1-1.5-.2-1.8-.2-.7-.6-1-1.3-1-.6 0-1.1.3-1.7 1v-3.9h-1.6v11.8h1.6v-.9c.5.7 1.1 1 1.7 1 .6 0 1.1-.3 1.3-1 .2-.3.2-.9.2-1.7zm6.1-.2v-.2h-1.6v1.1c-.1.4-.3.6-.7.6-.5 0-.8-.4-.8-1.2v-1.6h3.2v-1.8c0-.9-.2-1.6-.5-2.1-.5-.6-1.1-.9-1.9-.9-.8 0-1.4.3-1.9.9-.3.4-.5 1.1-.5 2.1v3.1c0 .9.2 1.6.5 2.1.5.6 1.1.9 1.9.9.9 0 1.5-.3 1.9-.9.2-.3.3-.6.4-1v-1.1zM13.6 9.4V5.6c0-.8-.3-1.2-.8-1.2s-.8.4-.8 1.2v3.8c0 .8.3 1.2.8 1.2s.8-.4.8-1.2zm12.9 13.4c0 2.8-.2 4.9-.5 6.2-.2.7-.5 1.3-1 1.8s-1.1.7-1.8.8c-2.2.3-5.6.4-10 .4s-7.7-.1-9.9-.4c-.7-.1-1.3-.3-1.8-.8S.6 29.7.5 29c-.3-1.3-.5-3.4-.5-6.2 0-2.8.2-4.9.5-6.2.2-.7.5-1.3 1-1.8s1.1-.8 1.8-.8c2.2-.2 5.5-.4 9.9-.4s7.7.1 9.9.4c.7.1 1.3.4 1.8.8.5.5.9 1.1 1 1.8.4 1.3.6 3.4.6 6.2zM8.6 0h1.8L8.3 7.1V12H6.5V7.1C6.4 6.2 6 5 5.4 3.3 5 2.1 4.6 1 4.3 0h1.9l1.3 4.7L8.6 0zm6.6 5.9V9c0 1-.2 1.7-.5 2.1-.5.6-1.1.9-1.9.9-.8 0-1.4-.3-1.9-.9-.3-.5-.5-1.2-.5-2.1V5.9c0-1 .2-1.6.5-2.1.5-.6 1.1-.9 1.9-.9.8 0 1.4.3 1.9.9.4.5.5 1.2.5 2.1zm6-2.8V12h-1.6v-1c-.6.7-1.2 1.1-1.8 1.1-.5 0-.9-.2-1.1-.7-.1-.3-.1-.7-.1-1.3v-7h1.6V10.3c0 .3.2.4.4.4.3 0 .7-.3 1-.8V3.1h1.6z"/>
</svg>
