<?xml version="1.0" encoding="UTF-8"?>
<svg preserveAspectRatio="xMidYMid slice" width="68px" height="68px" xmlns="http://www.w3.org/2000/svg" id="Laag_1" viewBox="0 0 200 200">
  <path d="M70.42,108.16c-.83-1.28-10.16-16.12-3.87-32.17,3.68-9.41,10.76-14.2,13.47-15.83,1.03-.69,11.28-7.3,22.8-2.96,8.18,3.08,12.09,9.84,12.98,11.48,.87,1.61,2.24,4.14,2.55,7.76,.39,4.59-1.03,9.57-4.83,14.54-1.49,1.95-3.35,3.53-5.66,4.05-.19,.04-4.76,1.08-8.24-2.1-.47-.42-1.52-1.4-2.18-3.03-1.54-3.82,.85-6.76-.79-10-.67-1.32-1.79-2.13-1.99-2.26,0,0-.01,0-.03-.02-.96-.65-3.93-2-6.82-.96-1.56,.56-2.49,1.59-2.84,1.97-3.43,3.8-4.6,13.69-.33,21.91,.53,1.02,4.1,7.74,11.6,10.94,.57,.24,1.02,.41,1.31,.52,11,4.05,20.7-1.84,22.2-2.78,.23-.15,.65-.4,1.22-.78,0,0,6.72-4.55,10.93-12.49,3.68-6.93,5.16-18.83,1.02-31.68" style="fill:none; stroke:#0067a8; stroke-linecap:round; stroke-miterlimit:10; stroke-width:9.14px;"></path>
  <path d="M152.08,55.68c8.66,9.39,14.78,21.18,17.24,34.25,.4-.03,.8-.04,1.21-.04,10.61,0,19.21,8.6,19.21,19.22s-8.6,19.21-19.21,19.21c-1.58,0-3.11-.19-4.58-.55-10.02,26.16-35.37,44.74-65.05,44.74s-55.03-18.58-65.05-44.74c-1.47,.36-3,.55-4.58,.55-10.61,0-19.21-8.6-19.21-19.21s8.6-19.22,19.21-19.22c.41,0,.81,0,1.21,.04,6.07-32.27,34.4-56.68,68.42-56.68,9.1,0,17.8,1.75,25.77,4.92" style="fill:none; stroke:#57c5dc; stroke-linecap:round; stroke-miterlimit:10; stroke-width:8.12px;"></path>
</svg>
