<?xml version="1.0" encoding="UTF-8"?>
<svg xmlns="http://www.w3.org/2000/svg" id="a" viewBox="0 0 200 200">
  <defs>
    <style>.b{stroke:#57c5dc;stroke-width:8.12px;}.b,.c{fill:none;stroke-linecap:round;stroke-miterlimit:10;}.c{stroke:#0067a8;stroke-width:7.5px;}</style>
  </defs>
  <path class="b" d="M154.68,55.68c8.66,9.39,14.78,21.18,17.24,34.25,.4-.03,.8-.04,1.21-.04,10.61,0,19.21,8.6,19.21,19.22s-8.6,19.21-19.21,19.21c-1.58,0-3.11-.19-4.58-.55-10.02,26.16-35.37,44.74-65.05,44.74s-55.03-18.58-65.05-44.74c-1.47,.36-3,.55-4.58,.55-10.61,0-19.21-8.6-19.21-19.21s8.6-19.22,19.21-19.22c.41,0,.81,0,1.21,.04,6.07-32.27,34.4-56.68,68.42-56.68,9.1,0,17.8,1.75,25.77,4.92"></path>
  <g>
    <path class="c" d="M98.82,88.07c-7.04,4.63-11.32,8.91-15.95,15.95-.79,1.21-2.57,1.21-3.36,0-4.63-7.04-8.91-11.32-15.95-15.95-1.21-.79-1.21-2.57,0-3.36,7.04-4.63,11.32-8.91,15.95-15.95,.79-1.21,2.57-1.21,3.36,0,4.63,7.04,8.91,11.32,15.95,15.95,1.21,.79,1.21,2.57,0,3.36Z"></path>
    <circle class="c" cx="119.45" cy="98.34" r="9.1"></circle>
    <rect class="c" x="105.56" y="56.14" width="19.62" height="19.62" rx="5.4" ry="5.4"></rect>
  </g>
</svg>
