<?xml version="1.0" encoding="UTF-8"?>
<svg xmlns="http://www.w3.org/2000/svg" id="Laag_1" viewBox="0 0 200 200">
  <path d="M72.73,139.12c.77,7.03,6.48,12.71,13.51,13.44,5.6,.58,10.67-1.87,13.75-5.92v28.14h0c-41.28,0-74.75-33.47-74.75-74.75h0s28.14,0,28.14,0c-4.05-3.08-6.51-8.15-5.92-13.75,.73-7.04,6.41-12.75,13.44-13.52,9.19-1,16.95,6.17,16.95,15.15,0,4.94-2.35,9.34-6.01,12.12h28.14v28.14c-2.78-3.65-7.17-6.01-12.12-6.01-8.98,0-16.15,7.76-15.15,16.95Z" style="fill:none; stroke:#57c5dc; stroke-linecap:round; stroke-linejoin:round; stroke-width:6.59px;"></path>
  <path d="M139.08,127.3c7.03-.77,12.71-6.48,13.44-13.51,.58-5.6-1.87-10.67-5.92-13.75h28.14c0,41.28-33.47,74.75-74.75,74.75h0v-28.14c-3.08,4.05-8.15,6.51-13.75,5.92-7.04-.73-12.75-6.41-13.52-13.44-1-9.19,6.17-16.95,15.15-16.95,4.94,0,9.34,2.35,12.12,6.01v-28.14h28.14c-3.65,2.78-6.01,7.17-6.01,12.12,0,8.98,7.76,16.15,16.95,15.15Z" style="fill:none; stroke:#57c5dc; stroke-linecap:round; stroke-linejoin:round; stroke-width:6.59px;"></path>
  <path d="M60.9,72.7c-7.03,.77-12.71,6.48-13.44,13.51-.58,5.6,1.87,10.67,5.92,13.75H25.24c0-41.28,33.47-74.75,74.75-74.75h0v28.14c3.08-4.05,8.15-6.51,13.75-5.92,7.04,.73,12.75,6.41,13.52,13.44,1,9.19-6.17,16.95-15.15,16.95-4.94,0-9.34-2.35-12.12-6.01v28.14h-28.14c3.65-2.78,6.01-7.17,6.01-12.12,0-8.98-7.76-16.15-16.95-15.15Z" style="fill:none; stroke:#57c5dc; stroke-linecap:round; stroke-linejoin:round; stroke-width:6.59px;"></path>
  <path d="M127.28,60.88c-.77-7.03-6.48-12.71-13.51-13.44-5.6-.58-10.67,1.87-13.75,5.92V25.22h0c41.28,0,74.75,33.47,74.75,74.75h0s-28.14,0-28.14,0c4.05,3.08,6.51,8.15,5.92,13.75-.73,7.04-6.41,12.75-13.44,13.52-9.19,1-16.95-6.17-16.95-15.15,0-4.94,2.35-9.34,6.01-12.12h-28.14v-28.14c2.78,3.65,7.17,6.01,12.12,6.01,8.98,0,16.15-7.76,15.15-16.95Z" style="fill:none; stroke:#0067a8; stroke-linecap:round; stroke-linejoin:round; stroke-width:6.59px;"></path>
</svg>
