<svg class="social__link-icon" xmlns="http://www.w3.org/2000/svg" viewBox="0 0 20 20"
    style="enable-background:new 0 0 20 20"
    xml:space="preserve"
    width="20" height="20">
    <path fill="currentColor" d="M10 0C4.5 0 0 4.5 0 10s4.5 10 10 10 10-4.5 10-10S15.5 0 10 0zm6.6 4.6c1.2 1.5 1.9 3.4 1.9 5.3-.3-.1-3.1-.6-5.9-.3-.1-.1-.1-.3-.2-.4L11.8 8c3.2-1.3 4.6-3.2 4.8-3.4zM10 1.5c2.2 0 4.2.8 5.7 2.1-.2.2-1.4 1.9-4.5 3.1-1.4-2.6-3-4.7-3.2-5 .6-.1 1.3-.2 2-.2zm-3.6.8c.2.3 1.7 2.4 3.2 4.9-4 1.1-7.5 1-7.9 1C2.2 5.6 4 3.4 6.4 2.3zM1.5 10v-.2c.4 0 4.5.1 8.8-1.2.2.5.5 1 .7 1.5-.1 0-.2.1-.3.1-4.4 1.4-6.7 5.3-6.9 5.6-1.5-1.6-2.3-3.6-2.3-5.8zm8.5 8.5c-1.9 0-3.7-.6-5.2-1.8.2-.3 1.9-3.7 6.7-5.3h.1c1.2 3.1 1.7 5.7 1.8 6.5-1.1.4-2.2.6-3.4.6zm4.8-1.4c-.1-.5-.5-3-1.7-6.1 2.7-.4 5 .3 5.3.4-.4 2.3-1.7 4.4-3.6 5.7z"/>
</svg>