<svg class="social__link-icon" xmlns="http://www.w3.org/2000/svg" viewBox="0 0 666.7 666.7"
    style="enable-background:new 0 0 666.7 666.7" xml:space="preserve"
    width="20" height="20">
    <path fill="currentColor" d="M0 133.3C0 59.7 59.7 0 133.3 0h400C607 0 666.7 59.7 666.7 133.3v400c0 73.6-59.7 133.3-133.3 133.3h-400C59.7 666.7 0 607 0 533.3v-400zm133.3-66.6c-36.8 0-66.7 29.8-66.7 66.7v400c0 36.8 29.8 66.7 66.7 66.7h400c36.8 0 66.7-29.8 66.7-66.7v-400c0-36.8-29.8-66.7-66.7-66.7h-400zm200 166.6c-55.2 0-100 44.8-100 100s44.8 100 100 100 100-44.8 100-100-44.7-100-100-100zm-166.6 100c0-92 74.6-166.7 166.7-166.7 92 0 166.7 74.6 166.7 166.7 0 92-74.6 166.7-166.7 166.7s-166.7-74.6-166.7-166.7zm350-133.3c27.6 0 50-22.4 50-50s-22.4-50-50-50-50 22.4-50 50 22.4 50 50 50z" style="fill-rule:evenodd;clip-rule:evenodd"/>
</svg>