<svg class="social__link-icon" xmlns="http://www.w3.org/2000/svg" viewBox="0 0 800 800"
    style="enable-background:new 0 0 800 800" xml:space="preserve"
    width="20" height="20">
    <path fill="currentColor" d="M518.8 7283.9c-65.1 2.9-121.6 18.9-167.1 64.2-45.7 45.6-61.5 102.3-64.4 166.7-1.8 40.2-12.5 344.1 18.5 423.8 20.9 53.8 62.2 95.1 116.4 116.1 25.3 9.8 54.2 16.5 96.6 18.5 354.4 16 485.8 7.3 541.2-134.6 9.8-25.3 16.6-54.1 18.5-96.4 16.2-355.3-2.6-432.4-64.4-494.1-49-48.8-106.7-82.1-495.3-64.2m3.2 717.8c-38.8-1.7-59.9-8.2-73.9-13.7-35.3-13.7-61.9-40.2-75.5-75.3-23.6-60.5-15.8-348.1-13.7-394.6 2.1-45.6 11.3-87.2 43.5-119.4 39.8-39.7 91.2-59.2 441.4-43.4 45.7 2.1 87.4 11.3 119.7 43.4 39.8 39.7 59.5 91.5 43.5 440.3-1.8 38.7-8.2 59.7-13.7 73.7-36.1 92.3-119 105.2-471.3 89m325.6-535.1c0 26.3 21.4 47.7 47.8 47.7s47.8-21.4 47.8-47.7c0-26.3-21.4-47.6-47.8-47.6-26.4-.1-47.8 21.3-47.8 47.6m-369.1 211.9c0 112.6 91.5 203.9 204.4 203.9s204.4-91.3 204.4-203.9-91.5-203.8-204.4-203.8-204.4 91.2-204.4 203.8m71.7 0c0-73 59.4-132.3 132.7-132.3 73.3 0 132.7 59.3 132.7 132.3 0 73.1-59.4 132.4-132.7 132.4-73.3 0-132.7-59.3-132.7-132.4" style="fill-rule:evenodd;clip-rule:evenodd" transform="translate(-284 -7279)"/>
</svg>