<svg class="social__link-icon"
    xmlns="http://www.w3.org/2000/svg" viewBox="0 0 800 800"
    style="enable-background:new 0 0 800 800" xml:space="preserve"
    width="20" height="20">
    <path fill="currentColor"  d="M400 0C179.1 0 0 179.1 0 400s179.1 400 400 400 400-179.1 400-400S620.9 0 400 0zM288.1 567.3h-78V317.8h78v249.5zM247 286.6h-.6c-28.3 0-46.6-19.1-46.6-43.3 0-24.7 18.9-43.3 47.7-43.3s46.4 18.6 47 43.3c.2 24-18.1 43.3-47.5 43.3zm353 280.7h-88.4v-129c0-33.8-13.8-56.9-44.2-56.9-23.3 0-36.2 15.6-42.2 30.6-2.2 5.3-1.9 12.8-1.9 20.5v134.8h-87.7s1.1-228.8 0-249.5h87.7V357c5.2-17.2 33.1-41.6 77.8-41.6 55.5 0 98.9 35.9 98.9 113.1v138.8z"/>
</svg>