<svg class="social__link-icon" xmlns="http://www.w3.org/2000/svg" viewBox="0 0 20 20"
    style="enable-background:new 0 0 20 20"
    xml:space="preserve"
    width="20" height="20">
    <path fill="currentColor" d="M14.3 4.3c-.6-.7-1-1.7-1-2.6h-.8c.2 1 .8 2 1.8 2.6zM7.2 9.9c-1.3 0-2.4 1.1-2.4 2.4 0 .9.5 1.7 1.3 2.1-.3-.4-.5-.9-.5-1.4 0-1.3 1.1-2.4 2.4-2.4.2 0 .5 0 .7.1V7.8c-.2 0-.5 0-.7-.1h-.1V10c-.2 0-.5-.1-.7-.1z"/>
    <path fill="currentColor" d="M16.4 5.6v2.2c-1.4 0-2.8-.4-4-1.3v5.8c0 2.9-2.4 5.3-5.3 5.3-1.1 0-2.1-.3-3-1 1 1.1 2.4 1.7 3.9 1.7 2.9 0 5.3-2.4 5.3-5.3V7.2c1.2.8 2.6 1.3 4 1.3V5.7c-.3 0-.6-.1-.9-.1z"/>
    <path fill="currentColor" d="M12.4 12.3V6.5c1.2.8 2.6 1.3 4 1.3V5.6c-.8-.2-1.6-.6-2.2-1.3-.9-.6-1.5-1.5-1.7-2.6h-2.1v11.5c0 1.3-1.1 2.3-2.4 2.3-.8 0-1.5-.4-2-1-.8-.4-1.3-1.2-1.3-2.1 0-1.3 1.1-2.4 2.4-2.4.2 0 .5 0 .7.1V7.8c-2.8.1-5.1 2.4-5.1 5.3 0 1.3.5 2.6 1.4 3.6.9.6 1.9 1 3 1 3-.1 5.3-2.5 5.3-5.4z"/>
</svg>