<svg class="social__link-icon" version="1.1" id="Layer_1" xmlns="http://www.w3.org/2000/svg" x="0"
    y="0" viewBox="0 0 20 20"
    style="enable-background:new 0 0 20 20" xml:space="preserve"
    width="20" height="20">
    <style>
        .st1{fill:#69c9d0}
    </style>
    <path d="M5.3 12.4c.1-.8.4-1.3 1.1-1.7.9-.6 2-.3 2-.3V8.3h.8V11s-1.1-.4-2 .3c-.6.5-1 .9-1.1 1.7 0 .4.1 1 .5 1.5-.1-.1-.2-.1-.3-.2-.9-.5-1-1.3-1-1.9zm8.5-8c-.6-.7-.8-1.4-.9-1.8h.8s-.2 1.3 1 2.5c-.4-.3-.7-.5-.9-.7zm3.7 1.9V9s-1 0-1.7-.2c-1-.3-1.7-.7-1.7-.7l-.5-.3v5.5c0 .3-.1 1.1-.3 1.7-.3.8-.8 1.4-.9 1.5 0 0-.6.7-1.7 1.2-1 .4-1.9.4-2.1.4 0 0-1.5.1-2.9-.8-.3-.2-.6-.4-.8-.7 1.4.9 2.9.8 2.9.8.3 0 1.1 0 2.1-.4 1.1-.5 1.7-1.2 1.7-1.2.1-.1.6-.7.9-1.5.3-.6.3-1.4.3-1.7V7.1l.5.3s.7.4 1.7.7c.7.2 1.7.2 1.7.2V6.2c.3.1.6.1.8.1z" style="fill:#ee1d52"/>
    <path d="M16.7 6.2v2.1s-1 0-1.7-.2c-1-.3-1.7-.7-1.7-.7l-.5-.3v5.5c0 .3-.1 1.1-.3 1.7-.3.8-.8 1.4-.9 1.5 0 0-.6.7-1.7 1.2-1 .4-1.9.4-2.1.4 0 0-1.5.1-2.9-.8l-.4-.4c-.4-.5-.7-1.2-.8-1.3-.1-.3-.3-1.1-.3-1.8.1-1.3.5-2.1.6-2.2.3-.5.7-1 1.2-1.4.4-.3.9-.6 1.4-.8.6-.2 1.2-.3 1.8-.4v2.1s-1.1-.4-2 .3c-.6.5-1 .9-1.1 1.7 0 .6.1 1.4 1 2 .1.1.2.1.3.2.1.2.3.4.5.5.8.5 1.5.6 2.4.2.6-.2 1-.7 1.2-1.3.1-.3.1-.7.1-1.1V2.5h2c.1.5.3 1.2.9 1.8.3.3.6.5.9.7.1.1.5.6 1.1.8.3.2.7.3 1 .4z"/>
    <path class="st1" d="M2.8 14.2v.1-.1zM6.6 8.6c-.5.2-1 .5-1.4.8-.5.4-.9.9-1.2 1.4-.1.2-.6 1-.6 2.2 0 .7.2 1.5.3 1.8.1.2.3.8.8 1.3.1.2.3.3.4.4-.5-.3-.9-.7-1.2-1.1-.4-.5-.7-1.1-.8-1.3-.1-.3-.3-1.1-.3-1.8.1-1.3.5-2.1.6-2.2.3-.5.7-1 1.2-1.4.4-.3.8-.5 1.4-.7.3-.1.7-.2 1-.3.5-.1 1.1-.1 1.6 0v.6c-.7 0-1.3.1-1.8.3z"/>
    <path class="st1" d="M12.8 2.5h-2v10.4c0 .4 0 .7-.1 1.1-.2.6-.6 1.1-1.2 1.3-.9.3-1.6.3-2.4-.2-.2-.1-.4-.3-.5-.5.7.4 1.3.3 2.1.1.6-.2 1-.7 1.2-1.3.1-.4.1-.7.1-1.1V1.9h2.8v.6zm3.9 3.1v.6c-.3-.1-.6-.2-1-.3-.6-.3-1-.7-1.1-.8.1.1.2.1.3.2.7.3 1.4.4 1.8.3z"/>
</svg>