<svg class="social__link-icon" xmlns="http://www.w3.org/2000/svg" viewBox="0 0 20 20"
    style="enable-background:new 0 0 20 20"
    xml:space="preserve"
    width="20" height="20">
    <path fill="currentColor" d="M17.9 5.9v.5c0 5.4-4.1 11.7-11.7 11.7-2.3 0-4.5-.7-6.3-1.8.3 0 .6.1 1 .1 1.9 0 3.7-.6 5.1-1.8-1.8 0-3.3-1.2-3.8-2.8.3 0 .5.1.8.1.4 0 .7-.1 1.1-.1-1.9-.4-3.3-2-3.3-4v-.2c.6.3 1.2.5 1.9.5C1.6 7.4.9 6.1.9 4.7c0-.8.2-1.5.6-2.1 2 2.5 5.1 4.1 8.5 4.3-.2-.3-.3-.6-.3-.9 0-2.3 1.8-4.1 4.1-4.1 1.2 0 2.2.5 3 1.3.9-.2 1.8-.5 2.6-1-.3 1-1 1.8-1.8 2.3.8-.1 1.6-.3 2.4-.6-.6.7-1.3 1.4-2.1 2z"/>
</svg>