<svg class="social__link-icon" xmlns="http://www.w3.org/2000/svg" viewBox="0 0 20 20"
    style="enable-background:new 0 0 20 20"
    xml:space="preserve"
    width="20" height="20">
    <path fill="currentColor" d="M12.3 13.9v2.4c0 .5-.1.7-.4.7-.2 0-.3-.1-.5-.2v-3.4c.2-.2.3-.2.5-.2.2-.1.4.2.4.7zm3.7 0v.5h-1v-.5c0-.5.2-.8.5-.8.4 0 .5.3.5.8zM5.3 11.5h1.2v-1H3v1h1.2v6.4h1.1v-6.4zm3.2 6.3h1v-5.5h-1v4.2c-.3.3-.5.5-.7.5-.1 0-.2-.1-.2-.2v-4.5h-1v4.4c0 .4 0 .6.1.8.1.3.3.4.6.4.4 0 .7-.2 1.1-.7v.6h.1zm4.8-1.6V14c0-.5 0-.9-.1-1.1-.1-.4-.4-.6-.8-.6s-.7.2-1 .6v-2.4h-1v7.4h1v-.5c.3.4.7.6 1 .6.4 0 .7-.2.8-.6 0-.3.1-.7.1-1.2zM17 16v-.1h-1v.7c-.1.3-.2.4-.4.4-.3 0-.5-.3-.5-.8v-1h2v-1.1c0-.6-.1-1-.3-1.3-.3-.4-.7-.6-1.2-.6s-.9.2-1.2.6c-.2.3-.3.7-.3 1.3V16c0 .6.1 1 .3 1.3.3.4.7.6 1.2.6s.9-.2 1.2-.6c.1-.2.2-.4.2-.6V16zM10.2 5.9V3.5c0-.5-.2-.8-.5-.8s-.4.3-.4.8v2.3c0 .5.2.8.5.8s.4-.2.4-.7zm8.1 8.3c0 1.7-.1 3-.3 3.9-.1.4-.3.8-.6 1.1-.3.3-.7.5-1.1.5-1.5.2-3.5.3-6.3.3s-4.8-.1-6.2-.2c-.4 0-.8-.2-1.1-.5s-.6-.7-.7-1.2c-.2-.8-.3-2.1-.3-3.9 0-1.7.1-3 .3-3.9.1-.4.3-.8.6-1.1.4-.3.8-.4 1.2-.5 1.4-.1 3.4-.2 6.2-.2s4.8.1 6.2.2c.4.1.8.2 1.1.5.3.3.5.7.6 1.1.3.9.4 2.2.4 3.9zM7.1 0h1.1L6.9 4.5v3H5.8v-3c-.1-.6-.3-1.4-.7-2.4-.3-.8-.5-1.5-.7-2.1h1.2l.8 2.9.7-2.9zm4.2 3.7v2c0 .6-.1 1-.3 1.3-.3.4-.7.6-1.2.6s-.9-.2-1.2-.6c-.2-.3-.3-.7-.3-1.3v-2c0-.6.1-1 .3-1.3.3-.4.7-.6 1.2-.6s.9.2 1.2.6c.2.3.3.7.3 1.3zM15 1.9v5.6h-1v-.6c-.4.5-.8.7-1.1.7-.3 0-.6-.1-.7-.4-.1-.2-.1-.5-.1-.8V1.9h1v4.5c0 .2.1.2.2.2.2 0 .4-.2.6-.5V1.9H15z"/>
</svg>