<?xml version="1.0" encoding="UTF-8"?>
<svg xmlns="http://www.w3.org/2000/svg" xmlns:xlink="http://www.w3.org/1999/xlink" height="76px" viewBox="0 0 157 40" width="300px">
  <linearGradient id="a" x1="0%" x2="100%" y1="50%" y2="50%">
    <stop offset="0" stop-color="#2da9c5"></stop>
    <stop offset="1" stop-color="#006ac0"></stop>
  </linearGradient>
  <g fill="none">
    <path d="m23.0443657 23.1022744 1.395509-1.4059255c.2767229-.2788029.6520485-.4354339 1.0434039-.4354339.3913555 0 .766681.156631 1.043404.4354339l4.2485005 4.2813274c.2767373.2787885.4322077.6569155.4322077 1.0511922s-.1554704.7724037-.4322077 1.0511922l-4.684159 4.7191229c-.3473035.3503015-.8450469.5031921-1.3272645.4076922l-4.6830522 4.3203501c-.576202.5316512-1.4638903.5186147-2.0244656-.0297314l-9.22592646-9.0264653c-.2833981-.2773392-.44456131-.6575938-.44751585-1.0556224-.00273105-.3980287.15298399-.7805804.43239142-1.0619995l7.68470609-7.7416953c.276723-.2788029.6520485-.435434 1.043404-.435434s.7666809.1566311 1.0434039.435434l4.4576608 4.4909341z" fill="#0b3656"></path>
    <path d="m34.0880747 29.6458058c.0011065.0371643.0014754.0754435.0014754.113351 0 2.4494991-1.9713456 4.4355644-4.4030651 4.4355644-.0376265 0-.0748845-.0003766-.1125113-.0014917h-19.1479474c-.0374944.0010528-.0750023.0014917-.1125112.0014917-2.43171967 0-4.40306517-1.9860653-4.40306517-4.4355644v-19.5179471c0-2.44987066 1.9713455-4.43593088 4.40306517-4.43593088h19.3729699c2.4317195 0 4.4030651 1.98606022 4.4030651 4.43593088 0 .0379076-.0003689.0758152-.0014754.1133511v19.2916167zm-5.1061686-.596487v-18.0997575h-17.9649188v18.0997575z" fill="url(#a)" transform="matrix(.70710678 .70710678 -.70710678 .70710678 20 -8.284271)"></path>
    <path d="m54.751656 23.6465577h-4.3036071l-.7145613 2.1224395h-2.9232049l4.2061672-11.5500192h3.1992852l4.2061672 11.5500192h-2.955685zm-.7145612-2.1388924-1.4291223-4.2777849-1.4453624 4.2777849zm8.2336941-7.913902v12.1752339h-2.7770447v-12.1752339zm7.5678525 2.8792782c.7470448 0 1.4155866.1892079 2.0056437.5676292s1.0555999.9213655 1.3966424 1.6288489c.3410422.7074833.5115604 1.5438367.5115604 2.5090854 0 .9542798-.1705182 1.7878911-.5115604 2.5008588-.3410425.7129677-.8065853 1.258654-1.3966424 1.6370754-.5900571.3784213-1.2585989.5676291-2.0056437.5676291-.6929109 0-1.288373-.1590442-1.7864031-.4771375-.4980296-.3180933-.8607201-.7513518-1.0880815-1.2997885v6.038258h-2.7770447v-13.5572876h2.7770447v1.6617549c.2273614-.5484367.5900519-.9816952 1.0880815-1.2997885.4980301-.3180933 1.0934922-.4771376 1.7864031-.4771376zm-.8932013 2.4679529c-.5846441 0-1.06372.2001764-1.4372429.6005352-.3735219.4003587-.5602806.9460451-.5602806 1.6370754 0 .6800614.1867587 1.2230057.5602806 1.6288488.3735229.4058431.8525988.6087617 1.4372429.6087617.5954701 0 1.074547-.1974343 1.4372421-.5923087.3626962-.3948744.544041-.9433029.544041-1.6453018 0-.701999-.1813448-1.2504275-.544041-1.645302-.3626951-.3948744-.841772-.5923086-1.4372421-.5923086zm5.9925704-4.9359057c0-.4277806.1515721-.781517.45472-1.0612197.3031491-.2797027.7037324-.419552 1.2017625-.419552.4980302 0 .8986129.1398493 1.2017617.419552.303149.2797027.4547208.6334391.4547208 1.0612197 0 .4168119-.1515718.765064-.4547208 1.0447667-.3031488.2797028-.7037315.419552-1.2017617.419552-.4980301 0-.8986134-.1398492-1.2017625-.419552-.3031479-.2797027-.45472-.6279548-.45472-1.0447667zm3.036885 2.583124v9.1807845h-2.7770449v-9.1807845zm7.6652928-.0987181c1.039367 0 1.8648936.3509942 2.4766045 1.0529932.6117105.701999.9175609 1.6672331.9175609 2.8957313v5.3307781h-2.7770444v-5.0017177c0-.6142491-.1596919-1.0941241-.4790805-1.4396392-.3193896-.3455151-.744332-.51827-1.2748428-.51827-.5629903 0-1.0095865.1809813-1.3398021.5429495-.3302156.3619683-.4953205.8774911-.4953205 1.5465838v4.8700936h-2.7770449v-9.1807845h2.7770449v1.6782079c.2598416-.5484367.646892-.9816952 1.1611621-1.2997885.51427-.3180933 1.1178513-.4771375 1.8107628-.4771375zm13.8365032 4.4423151c0 .2303434-.0270662.4826205-.0812003.7568388h-6.28489c.0324795.6910303.2057054 1.1873581.5196802 1.4889982.3139756.3016402.7145592.452458 1.2017625.452458.4114156 0 .7524532-.1042014 1.0231216-.3126073.2706684-.208406.4493073-.4771359.535921-.806198h2.9394445c-.1190935.6471553-.3789318 1.2257474-.7795212 1.7357935-.400589.5100462-.9094386.910399-1.5265622 1.2010704-.6171244.2906715-1.3046123.436005-2.062484.436005-.887792 0-1.675426-.1892078-2.3629236-.5676291-.687498-.3784214-1.2261203-.9241077-1.615883-1.6370754s-.5846406-1.546579-.5846406-2.5008588c0-.9652487.1921717-1.8016021.5765205-2.5090854.3843497-.7074834.9229714-1.2504276 1.615883-1.6288489.6929115-.3784213 1.4832517-.5676292 2.3710437-.5676292.8986198 0 1.6889598.1864657 2.3710444.5594027.6820841.372937 1.2098797.8966862 1.5834026 1.5712633.3735228.6745771.5602809 1.4506034.5602809 2.3281022zm-2.8095248-.4277785c.0108269-.6032804-.1488653-1.0557339-.4790808-1.3573741-.3302156-.3016402-.738919-.452458-1.2261223-.452458-.5088561 0-.9310926.1535599-1.2667218.4606845-.3356286.3071246-.5250943.7568359-.5684007 1.3491476zm17.8315503-.5758557c0 1.1407484-.240891 2.1525989-.722681 3.035582s-1.174691 1.5712608-2.078724 2.0648538c-.904032.4935931-1.967744.7403859-3.191165.7403859h-4.336088v-11.6322843h4.336088c1.234248 0 2.300665.2413085 3.199285.7239328.898619.4826243 1.588814 1.1626756 2.070604 2.0401744.48179.8774986.722681 1.8866071.722681 3.0273554zm-6.236171 3.3235098c1.082674 0 1.924441-.2906671 2.525325-.87201.600883-.5813429.901321-1.3985013.901321-2.4514998s-.300438-1.8701569-.901321-2.4514998c-.600884-.5813429-1.442651-.87201-2.525325-.87201h-1.315442v6.6470196zm7.551613-9.2465966c0-.4277806.151572-.781517.45472-1.0612197.303149-.2797027.703733-.419552 1.201763-.419552s.898613.1398493 1.201762.419552.454721.6334391.454721 1.0612197c0 .4168119-.151572.765064-.454721 1.0447667-.303149.2797028-.703732.419552-1.201762.419552s-.898614-.1398492-1.201763-.419552c-.303148-.2797027-.45472-.6279548-.45472-1.0447667zm3.036885 2.583124v9.1807845h-2.777045v-9.1807845zm5.359209-.1151712c.692912 0 1.288373.1590443 1.786403.4771376s.866134.7513518 1.104322 1.2997885v-1.6617549h2.760805v9.1314254c0 .8555613-.162399 1.6261033-.487201 2.3116492-.324802.6855458-.822825 1.2312322-1.494083 1.6370754s-1.504904.6087617-2.500964.6087617c-1.364169 0-2.454947-.326315-3.272366-.9789546-.817418-.6526397-1.30732-1.5383517-1.469722-2.6571626h2.744565c.086614.372937.284199.663604.592761.87201.308561.2084059.711852.3126074 1.209882.3126074.573817 0 1.036653-.1672707 1.388523-.5018171.351868-.3345464.5278-.8692642.5278-1.6041694v-1.6123958c-.238188.5484367-.606292.9816952-1.104322 1.2997885s-1.093491.4771375-1.786403.4771375c-.747045 0-1.415586-.1892078-2.005643-.5676291-.590058-.3784214-1.0556-.9241077-1.396642-1.6370754-.341043-.7129677-.511561-1.546579-.511561-2.5008588 0-.9652487.170518-1.8016021.511561-2.5090854.341042-.7074834.806584-1.2504276 1.396642-1.6288489.590057-.3784213 1.258598-.5676292 2.005643-.5676292zm.893202 2.4679529c-.595471 0-1.074547.1974342-1.437243.5923086-.362695.3948745-.544041.943303-.544041 1.645302 0 .7019989.181346 1.2504274.544041 1.6453018.362696.3948744.841772.5923087 1.437243.5923087.584644 0 1.063721-.2029186 1.437242-.6087617.373523-.4058431.560281-.9487874.560281-1.6288488 0-.6910303-.186758-1.2367167-.560281-1.6370754-.373521-.4003588-.852598-.6005352-1.437242-.6005352zm6.41481-4.9359057c0-.4277806.151573-.781517.454721-1.0612197.303149-.2797027.703732-.419552 1.201762-.419552s.898614.1398493 1.201763.419552c.303148.2797027.45472.6334391.45472 1.0612197 0 .4168119-.151572.765064-.45472 1.0447667-.303149.2797028-.703733.419552-1.201763.419552s-.898613-.1398492-1.201762-.419552c-.303148-.2797027-.454721-.6279548-.454721-1.0447667zm3.036886 2.583124v9.1807845h-2.777045v-9.1807845zm7.048171 6.7621907v2.4185938h-1.250482c-1.06102 0-1.886546-.2659878-2.476604-.7979714-.590057-.5319836-.885081-1.4122113-.885081-2.6407095v-3.3728689h-1.218002v-2.3692347h1.218002v-2.2540636h2.777045v2.2540636h1.818882v2.3692347h-1.818882v3.4222279c0 .3619683.073079.6142453.21924.7568389.14616.1425936.392466.2138892.738921.2138892zm5.001929-6.8773619c.692911 0 1.288373.1590443 1.786403.4771376s.866134.7513518 1.104322 1.2997885v-1.6617549h2.760805v9.1807845h-2.760805v-1.6617549c-.238188.5484367-.606292.9816952-1.104322 1.2997885s-1.093492.4771375-1.786403.4771375c-.747045 0-1.415586-.1892078-2.005643-.5676291-.590058-.3784214-1.0556-.9241077-1.396643-1.6370754-.341042-.7129677-.511561-1.546579-.511561-2.5008588 0-.9652487.170519-1.8016021.511561-2.5090854.341043-.7074834.806585-1.2504276 1.396643-1.6288489.590057-.3784213 1.258598-.5676292 2.005643-.5676292zm.893202 2.4679529c-.595471 0-1.074547.1974342-1.437243.5923086-.362696.3948745-.544041.943303-.544041 1.645302 0 .7019989.181345 1.2504274.544041 1.6453018s.841772.5923087 1.437243.5923087c.584644 0 1.063721-.2029186 1.437242-.6087617.373523-.4058431.560281-.9487874.560281-1.6288488 0-.6910303-.186758-1.2367167-.560281-1.6370754-.373521-.4003588-.852598-.6005352-1.437242-.6005352zm9.451695-5.3472311v12.1752339h-2.777045v-12.1752339z" fill="#0b3656"></path>
  </g>
</svg>
