<?xml version="1.0" encoding="UTF-8"?>
<svg preserveAspectRatio="xMidYMid slice" width="68px" height="68px" xmlns="http://www.w3.org/2000/svg" id="a" viewBox="0 0 23 23">
  <defs>
    <style>.b{fill:#c8e6f9;}</style>
  </defs>
  <path class="b" d="M11.3,9.05c-1.24,0-2.25,1.01-2.25,2.25,0,1.24,1.01,2.25,2.25,2.25,1.24,0,2.25-1.01,2.25-2.25h0c0-1.24-1.01-2.25-2.25-2.25Z"></path>
  <path class="b" d="M16.57,7.32c-.23-.59-.7-1.05-1.28-1.28-1.31-.27-2.65-.36-3.98-.27-1.33-.09-2.67,0-3.98,.27-.59,.23-1.05,.7-1.28,1.28-.27,1.31-.36,2.65-.27,3.98-.09,1.33,0,2.67,.27,3.98,.23,.59,.7,1.05,1.28,1.28,1.31,.27,2.65,.36,3.98,.27,1.33,.09,2.67,0,3.98-.27,.59-.23,1.05-.7,1.28-1.28h0c.27-1.31,.36-2.65,.27-3.98,.09-1.33,0-2.67-.27-3.98Zm-1.8,3.98c0,1.91-1.55,3.46-3.46,3.46-1.91,0-3.46-1.55-3.46-3.46s1.55-3.46,3.46-3.46h.01c1.91,0,3.45,1.55,3.45,3.46h0Zm.14-2.79c-.45,0-.81-.36-.81-.81s.36-.81,.81-.81c.45,0,.81,.36,.81,.8h0c0,.45-.36,.81-.81,.81Z"></path>
  <path class="b" d="M11.5,0C5.15,0,0,5.15,0,11.5s5.15,11.5,11.5,11.5,11.5-5.15,11.5-11.5S17.85,0,11.5,0Zm6.51,14.09c.02,1.05-.37,2.07-1.09,2.83-.76,.72-1.78,1.11-2.83,1.09-1.11,.06-4.46,.06-5.57,0-1.05,.02-2.07-.38-2.83-1.1-.72-.76-1.11-1.78-1.09-2.83-.06-1.11-.06-4.46,0-5.57-.02-1.05,.37-2.06,1.09-2.83,.76-.72,1.78-1.11,2.83-1.09,1.11-.06,4.46-.06,5.57,0,1.05-.02,2.07,.37,2.83,1.09,.72,.76,1.11,1.78,1.09,2.83h0c.06,1.12,.06,4.46,0,5.57Z"></path>
</svg>
