<?xml version="1.0" encoding="UTF-8"?>
<svg preserveAspectRatio="xMidYMid slice" width="34px" height="24px" xmlns="http://www.w3.org/2000/svg" id="a" viewBox="0 0 22.54 16.9">
  <defs>
    <style>.c{fill:#c8e6f9;}</style>
  </defs>
  <path id="b" class="c" d="M22.12,5.58c.12-.09,.28-.07,.37,.05,.04,.05,.05,.1,.06,.16V14.79c0,1.17-.95,2.11-2.11,2.11H2.11C.95,16.9,0,15.96,0,14.79V5.79c0-.15,.12-.26,.26-.26,.06,0,.12,.02,.17,.06,.99,.77,2.29,1.74,6.78,5,.93,.68,2.5,2.1,4.06,2.1,1.57,.01,3.17-1.44,4.06-2.1,4.49-3.26,5.79-4.24,6.78-5Zm-10.84,5.69c1.02,.02,2.49-1.29,3.23-1.82,5.84-4.24,6.29-4.61,7.64-5.67,.26-.2,.41-.51,.41-.83v-.84c0-1.17-.95-2.11-2.11-2.11H2.11C.95,0,0,.95,0,2.11v.84c0,.32,.15,.63,.41,.83,1.35,1.05,1.8,1.43,7.63,5.67,.74,.54,2.21,1.84,3.23,1.82Z"></path>
</svg>
