<?xml version="1.0" standalone="no"?>
<!DOCTYPE svg PUBLIC "-//W3C//DTD SVG 20010904//EN"
 "http://www.w3.org/TR/2001/REC-SVG-20010904/DTD/svg10.dtd">
<svg version="1.0" xmlns="http://www.w3.org/2000/svg"
 width="272.000000pt" height="272.000000pt" viewBox="0 0 272.000000 272.000000"
 preserveAspectRatio="xMidYMid meet">
<metadata>
Created by potrace 1.14, written by Peter Selinger 2001-2017
</metadata>
<g transform="translate(0.000000,272.000000) scale(0.100000,-0.100000)"
fill="#000000" stroke="none">
<path d="M1376 2658 c-8 -13 -17 -62 -20 -113 -3 -49 -8 -100 -10 -112 -3 -11
-8 -43 -12 -70 -5 -26 -9 -51 -10 -55 -1 -5 -2 -15 -3 -24 -1 -15 -3 -15 -24
-1 -13 8 -43 21 -66 27 -49 13 -84 -2 -94 -40 -8 -29 33 -70 69 -70 36 0 25
-10 -18 -17 -51 -7 -172 -50 -239 -84 -113 -56 -195 -154 -205 -242 -4 -36 -1
-48 20 -70 35 -38 70 -43 146 -23 36 10 72 17 80 17 38 -4 67 -3 91 2 50 10
124 56 176 107 91 91 134 199 172 430 39 229 44 311 24 340 -19 27 -59 26 -77
-2z m-196 -594 c0 -16 -112 -109 -162 -135 -53 -27 -134 -59 -150 -59 -16 0
22 52 58 81 69 55 254 138 254 113z"/>
<path d="M1981 2505 c-16 -25 -60 -106 -98 -180 l-68 -134 -50 -12 c-27 -7
-72 -12 -100 -11 -59 1 -95 -19 -95 -52 0 -44 34 -61 120 -60 l78 1 -14 -46
c-25 -85 -29 -125 -29 -286 0 -151 1 -163 25 -210 20 -40 31 -51 53 -53 55 -7
72 35 40 99 -14 26 -18 61 -19 153 -1 130 13 230 45 321 12 33 21 60 21 61 0
1 19 9 43 19 23 9 86 37 140 62 74 35 99 52 103 70 8 32 -1 51 -31 65 -22 10
-33 8 -73 -12 -26 -12 -61 -29 -78 -36 l-32 -13 49 92 c86 160 84 154 71 182
-9 19 -19 25 -42 25 -25 0 -35 -8 -59 -45z"/>
<path d="M1598 2413 c-28 -32 -4 -83 37 -83 41 0 65 51 37 83 -8 9 -25 17 -37
17 -12 0 -29 -8 -37 -17z"/>
<path d="M1454 2002 c-18 -12 -26 -50 -14 -71 6 -11 28 -25 50 -31 22 -6 40
-12 40 -14 0 -1 -15 -3 -34 -4 -19 -1 -63 -11 -98 -23 -218 -73 -340 -176
-355 -300 -5 -43 -3 -53 17 -74 39 -42 67 -45 160 -18 93 26 171 66 238 120
23 19 42 33 43 31 0 -2 3 -23 5 -48 9 -106 31 -148 87 -169 24 -9 31 -8 52 13
23 23 25 62 3 77 -35 23 -42 180 -14 301 24 105 5 165 -65 200 -35 18 -95 24
-115 10z m5 -259 c-22 -27 -90 -87 -118 -104 -31 -19 -155 -69 -171 -69 -16 0
7 39 39 68 54 48 201 121 245 122 16 0 17 -2 5 -17z"/>
<path d="M753 1618 c-21 -27 -23 -51 -7 -69 47 -52 118 13 74 66 -15 18 -54
19 -67 3z"/>
<path d="M2082 1528 c-16 -16 -15 -63 2 -77 8 -7 27 -11 43 -9 33 4 54 48 37
76 -13 21 -65 27 -82 10z"/>
<path d="M1661 1080 c1 -86 5 -110 15 -110 8 0 14 4 14 10 0 6 9 5 24 -1 51
-23 96 13 96 76 0 49 -67 84 -98 53 -9 -9 -12 -2 -12 35 0 40 -3 47 -20 47
-19 0 -20 -6 -19 -110z m107 -23 c4 -33 -13 -57 -38 -57 -20 0 -30 19 -30 55
0 45 63 47 68 2z"/>
<path d="M2010 1080 c0 -103 1 -110 20 -110 19 0 20 7 20 110 0 103 -1 110
-20 110 -19 0 -20 -7 -20 -110z"/>
<path d="M68 1163 c-56 -35 -63 -127 -13 -170 34 -30 115 -33 115 -5 0 15 -6
17 -34 14 -44 -5 -76 25 -76 71 0 50 20 71 69 71 32 1 41 5 41 19 0 23 -64 23
-102 0z"/>
<path d="M1247 1092 c-14 -48 -29 -96 -33 -105 -4 -13 -1 -17 15 -17 16 0 23
8 28 30 5 26 10 30 38 30 28 0 35 -5 44 -30 6 -20 17 -30 29 -30 19 0 18 5
-12 103 -28 92 -34 102 -57 105 -24 3 -27 -3 -52 -86z m67 -4 c6 -25 3 -28
-17 -28 -23 0 -23 2 -13 45 11 46 15 44 30 -17z"/>
<path d="M531 1151 c-7 -5 -10 -14 -7 -20 4 -6 0 -11 -8 -11 -17 0 -17 -20 -1
-32 6 -4 10 -28 11 -54 1 -47 13 -64 47 -64 21 0 23 26 2 34 -20 7 -21 86 -1
86 8 0 16 7 20 15 4 10 -1 15 -14 15 -13 0 -20 7 -20 20 0 22 -7 25 -29 11z"/>
<path d="M2420 1146 c0 -7 -7 -19 -15 -26 -12 -10 -13 -16 -3 -27 6 -8 13 -35
14 -60 1 -48 14 -63 51 -63 25 0 22 24 -3 34 -9 3 -14 20 -14 46 0 32 4 40 18
40 10 0 19 7 19 15 0 8 -9 15 -19 15 -11 0 -18 7 -18 20 0 11 -7 20 -15 20 -8
0 -15 -6 -15 -14z"/>
<path d="M222 1113 c-19 -8 -40 -55 -36 -83 6 -37 41 -62 82 -58 48 4 55 28 9
28 -19 0 -40 7 -47 15 -14 17 -14 17 43 19 35 1 43 5 45 23 6 42 -50 75 -96
56z m62 -39 c4 -10 -3 -14 -29 -14 -39 0 -41 2 -20 24 17 17 40 12 49 -10z"/>
<path d="M350 1045 c0 -68 2 -75 20 -75 16 0 19 8 22 58 3 49 6 57 23 57 17 0
20 -8 23 -57 3 -50 6 -58 22 -58 17 0 20 7 20 53 0 31 -6 61 -16 75 -17 24
-53 29 -72 10 -9 -9 -12 -9 -12 0 0 7 -7 12 -15 12 -12 0 -15 -15 -15 -75z"/>
<path d="M627 1113 c-3 -5 -5 -38 -6 -75 -1 -62 1 -68 19 -68 17 0 20 7 20 51
0 42 3 52 19 56 26 7 35 32 14 40 -9 4 -19 1 -21 -5 -2 -7 -8 -12 -13 -12 -6
0 -7 5 -4 10 3 6 -1 10 -9 10 -8 0 -17 -3 -19 -7z"/>
<path d="M730 1067 c0 -82 36 -116 91 -87 13 7 19 7 19 0 0 -5 7 -10 15 -10
12 0 15 15 15 75 0 68 -2 75 -20 75 -18 0 -20 -7 -20 -54 0 -46 -3 -56 -20
-61 -32 -10 -40 3 -40 61 0 47 -2 54 -20 54 -17 0 -20 -7 -20 -53z"/>
<path d="M909 1116 c-1 -1 -2 -34 -3 -73 -2 -65 0 -73 16 -73 15 0 18 8 18 44
0 57 8 76 31 76 20 0 21 -4 22 -77 1 -34 5 -43 19 -43 15 0 18 9 18 49 0 32 5
53 16 62 24 20 40 -8 39 -65 -1 -38 2 -46 17 -46 15 0 18 9 18 59 0 41 -5 65
-16 75 -18 18 -50 21 -59 5 -4 -6 -14 -7 -24 -3 -12 6 -107 14 -112 10z"/>
<path d="M1410 1044 c0 -66 2 -75 18 -72 12 2 17 13 18 38 2 63 4 71 20 77 23
8 34 -14 34 -70 0 -41 3 -48 17 -45 14 2 18 14 18 52 0 36 5 52 18 60 24 15
37 -6 37 -66 0 -40 3 -48 18 -48 16 0 19 8 17 60 -1 33 -8 66 -15 75 -15 18
-51 20 -68 3 -9 -9 -15 -9 -24 0 -7 7 -21 12 -33 12 -12 0 -26 -5 -33 -12 -9
-9 -12 -9 -12 0 0 7 -7 12 -15 12 -12 0 -15 -15 -15 -76z"/>
<path d="M1840 1062 c0 -47 4 -63 21 -77 17 -16 25 -17 50 -8 16 6 29 7 29 2
0 -5 7 -9 15 -9 12 0 15 15 15 75 0 68 -2 75 -20 75 -18 0 -20 -7 -20 -55 0
-41 -4 -57 -16 -62 -24 -9 -35 10 -36 66 0 43 -3 51 -19 51 -17 0 -19 -8 -19
-58z"/>
<path d="M2098 1113 c-10 -2 -15 -10 -11 -18 4 -11 10 -12 25 -4 16 8 24 7 35
-4 13 -13 11 -16 -22 -27 -41 -14 -66 -53 -47 -72 7 -7 37 -13 67 -14 l55 -2
-3 58 c-2 32 -9 65 -16 74 -13 15 -46 19 -83 9z m60 -90 c-2 -10 -13 -19 -26
-21 -24 -4 -25 -2 -16 22 9 23 46 21 42 -1z"/>
<path d="M2240 1045 c0 -68 2 -75 20 -75 16 0 19 8 22 58 3 49 6 57 23 57 17
0 20 -8 23 -57 3 -50 6 -58 22 -58 18 0 20 7 20 58 0 47 -4 63 -21 77 -17 16
-25 17 -50 8 -16 -6 -29 -7 -29 -2 0 5 -7 9 -15 9 -12 0 -15 -15 -15 -75z"/>
<path d="M2537 1108 c-25 -19 -38 -64 -27 -92 12 -32 43 -48 82 -44 44 4 49
28 6 28 -31 0 -58 14 -58 30 0 4 23 5 51 4 l51 -2 -6 32 c-7 35 -30 56 -61 56
-12 0 -29 -6 -38 -12z m67 -34 c4 -10 -3 -14 -29 -14 -37 0 -46 13 -18 28 20
12 39 6 47 -14z"/>
<path d="M1090 740 c0 -103 1 -110 20 -110 19 0 20 7 20 110 0 103 -1 110 -20
110 -19 0 -20 -7 -20 -110z"/>
<path d="M1341 843 c1 -5 1 -22 0 -40 -1 -30 -3 -31 -33 -27 -42 6 -63 -11
-72 -57 -11 -63 41 -107 95 -79 13 7 19 7 19 0 0 -5 7 -10 15 -10 12 0 15 19
15 110 0 103 -1 110 -20 110 -11 0 -19 -3 -19 -7z m-3 -116 c6 -32 -7 -67 -26
-67 -38 0 -57 51 -30 78 18 18 52 11 56 -11z"/>
<path d="M460 736 c0 -101 1 -106 21 -106 16 0 20 6 19 28 -3 48 -1 54 22 50
17 -2 25 -13 31 -40 7 -28 14 -38 28 -38 10 0 19 3 19 8 0 22 -22 82 -30 82
-6 0 -1 9 10 20 14 14 19 29 16 47 -7 38 -19 46 -81 51 l-55 4 0 -106z m98 51
c5 -24 -16 -47 -42 -47 -19 0 -21 4 -18 36 4 31 7 35 31 32 15 -2 27 -10 29
-21z"/>
<path d="M1164 829 c-3 -6 -2 -15 4 -21 13 -13 32 -2 32 18 0 16 -26 19 -36 3z"/>
<path d="M1675 830 c-8 -14 3 -30 21 -30 8 0 14 9 14 20 0 21 -24 28 -35 10z"/>
<path d="M1580 806 c0 -7 -7 -19 -15 -26 -12 -10 -13 -16 -3 -27 6 -8 12 -35
14 -60 2 -46 14 -63 47 -63 21 0 23 26 2 34 -21 7 -21 86 -1 86 24 0 30 21 7
27 -12 3 -21 13 -21 24 0 11 -7 19 -15 19 -8 0 -15 -6 -15 -14z"/>
<path d="M662 773 c-19 -8 -40 -55 -36 -83 6 -37 41 -62 82 -58 48 4 55 28 9
28 -19 0 -40 6 -46 14 -15 18 -6 23 47 22 37 -1 42 1 42 21 0 44 -53 74 -98
56z m62 -39 c4 -10 -3 -14 -29 -14 -37 0 -46 13 -18 28 20 12 39 6 47 -14z"/>
<path d="M775 763 c4 -10 16 -44 27 -76 17 -48 24 -58 40 -55 15 2 28 22 49
76 27 72 27 73 6 70 -16 -2 -25 -16 -38 -58 -9 -30 -17 -49 -18 -42 -1 16 -1
16 -16 59 -9 27 -20 39 -35 41 -19 3 -21 0 -15 -15z"/>
<path d="M947 773 c-4 -3 -7 -12 -7 -20 0 -11 4 -11 21 -3 15 9 24 8 35 -1 21
-17 17 -24 -13 -27 -29 -2 -63 -28 -63 -48 0 -26 29 -42 79 -42 l50 0 0 55 c0
40 -5 59 -20 74 -18 18 -69 26 -82 12z m63 -93 c0 -15 -7 -20 -25 -20 -41 0
-30 37 13 39 6 1 12 -8 12 -19z"/>
<path d="M1161 705 c1 -67 3 -75 20 -75 17 0 19 8 19 75 0 68 -2 75 -20 75
-18 0 -20 -7 -19 -75z"/>
<path d="M1433 773 c-23 -9 -14 -25 11 -21 14 3 30 2 37 -2 17 -11 1 -30 -25
-30 -29 0 -55 -44 -39 -68 7 -12 25 -17 62 -18 l51 -2 0 58 c0 42 -5 61 -18
73 -18 16 -54 21 -79 10z m57 -93 c0 -13 -7 -20 -20 -20 -19 0 -27 20 -13 33
13 14 33 6 33 -13z"/>
<path d="M1670 705 c0 -68 2 -75 20 -75 18 0 20 7 20 75 0 68 -2 75 -20 75
-18 0 -20 -7 -20 -75z"/>
<path d="M1761 754 c-42 -54 -12 -124 53 -124 38 0 68 16 46 24 -8 3 -28 6
-45 8 -18 2 -31 9 -33 20 -3 13 5 16 45 15 46 -2 48 -1 45 23 -9 61 -74 81
-111 34z m79 -25 c0 -5 -13 -9 -30 -9 -33 0 -39 14 -13 29 18 10 43 -2 43 -20z"/>
<path d="M1960 701 c0 -22 24 -71 33 -68 6 2 16 20 23 41 10 28 10 36 2 34 -7
-3 -15 -15 -19 -29 l-6 -24 -8 28 c-7 25 -25 39 -25 18z"/>
<path d="M2074 695 c18 -14 18 -16 3 -33 -24 -26 -21 -32 13 -32 17 0 30 5 30
10 0 6 -7 10 -16 10 -14 0 -14 2 0 22 23 32 20 38 -16 38 -31 -1 -32 -1 -14
-15z"/>
<path d="M2172 670 c12 -45 25 -51 37 -18 l8 23 7 -23 c10 -32 21 -27 34 15
12 40 7 59 -10 30 -9 -18 -10 -18 -23 0 -13 17 -14 17 -23 -7 l-9 -25 -7 23
c-13 39 -24 24 -14 -18z"/>
<path d="M2036 651 c-4 -7 -5 -15 -2 -18 9 -9 19 4 14 18 -4 11 -6 11 -12 0z"/>
<path d="M2130 640 c0 -5 4 -10 9 -10 6 0 13 5 16 10 3 6 -1 10 -9 10 -9 0
-16 -4 -16 -10z"/>
<path d="M732 468 c-18 -24 -70 -133 -81 -173 -20 -70 -25 -146 -11 -155 22
-13 37 -1 35 28 -3 49 25 146 64 217 21 39 36 76 33 83 -5 16 -27 16 -40 0z"/>
<path d="M1807 463 c-5 -18 -15 -59 -23 -98 -10 -45 -14 -213 -7 -260 7 -41
12 -50 28 -50 15 0 19 6 17 25 -9 87 -3 233 12 302 10 43 15 82 11 88 -10 16
-33 12 -38 -7z"/>
<path d="M221 400 c-16 -9 -6 -30 15 -30 15 0 20 25 6 34 -4 2 -14 1 -21 -4z"/>
<path d="M1387 403 c-4 -3 -7 -39 -7 -80 0 -58 3 -73 15 -73 10 0 15 10 15 28
0 32 14 57 27 49 5 -3 9 -22 8 -41 -2 -29 2 -36 16 -36 16 0 19 8 19 44 0 48
-18 71 -50 63 -17 -4 -20 0 -20 24 0 28 -9 37 -23 22z"/>
<path d="M2021 396 c-12 -14 -5 -26 16 -26 15 0 18 26 4 34 -5 3 -14 0 -20 -8z"/>
<path d="M47 392 c-3 -6 -2 -114 2 -134 3 -22 95 -1 113 26 13 20 9 83 -7 96
-17 14 -102 24 -108 12z m77 -38 c9 -8 16 -22 16 -29 0 -18 -28 -45 -46 -45
-10 0 -14 13 -14 45 0 49 15 59 44 29z"/>
<path d="M775 338 c-9 -34 -19 -68 -22 -75 -8 -21 25 -15 37 7 6 11 17 20 25
20 8 0 19 -9 25 -20 10 -19 40 -28 40 -12 0 14 -29 101 -40 121 -22 41 -46 26
-65 -41z m48 2 c3 -12 0 -20 -8 -20 -8 0 -11 8 -8 20 3 11 7 20 8 20 1 0 5 -9
8 -20z"/>
<path d="M1872 383 c2 -11 11 -17 21 -15 14 2 17 -6 17 -58 0 -53 2 -61 18
-58 13 2 17 14 18 48 2 70 3 73 19 66 10 -4 15 1 15 14 0 18 -7 20 -56 20 -48
0 -55 -2 -52 -17z"/>
<path d="M542 370 c-15 -16 -19 -27 -12 -34 5 -5 10 -20 10 -32 0 -35 11 -54
30 -54 26 0 33 15 15 30 -20 17 -19 46 3 55 15 6 15 8 1 18 -9 7 -18 18 -20
26 -4 11 -10 9 -27 -9z"/>
<path d="M1672 372 c-14 -13 -18 -22 -11 -33 5 -8 9 -29 9 -47 0 -34 18 -49
45 -38 13 4 12 9 -3 35 -16 29 -16 31 3 45 19 13 19 15 3 21 -10 4 -16 11 -13
15 11 18 -13 19 -33 2z"/>
<path d="M210 305 c0 -48 3 -56 18 -53 13 3 17 14 17 53 0 39 -4 50 -17 53
-15 3 -18 -5 -18 -53z"/>
<path d="M300 345 c-16 -19 -16 -61 0 -80 7 -8 25 -14 43 -12 38 3 49 27 13
27 -14 0 -26 4 -26 9 0 5 8 8 18 6 36 -6 50 36 18 57 -18 13 -53 9 -66 -7z
m45 -15 c3 -5 -1 -10 -10 -10 -9 0 -13 5 -10 10 3 6 8 10 10 10 2 0 7 -4 10
-10z"/>
<path d="M433 353 c-21 -8 -15 -39 10 -56 l22 -16 -22 0 c-36 -1 -29 -31 7
-31 42 0 61 37 31 61 -24 20 -28 31 -6 23 9 -4 15 0 15 10 0 16 -30 21 -57 9z"/>
<path d="M920 344 c0 -11 6 -13 19 -9 11 3 23 0 27 -6 4 -7 3 -9 -3 -6 -6 4
-22 -2 -34 -12 -34 -28 -16 -56 37 -56 37 0 39 2 42 32 5 49 -13 73 -53 73
-25 0 -35 -4 -35 -16z m50 -54 c0 -5 -4 -10 -10 -10 -5 0 -10 5 -10 10 0 6 5
10 10 10 6 0 10 -4 10 -10z"/>
<path d="M1050 304 c0 -46 3 -54 18 -54 14 0 18 7 17 28 -2 35 4 52 19 52 7 0
13 6 13 14 0 9 -12 14 -34 14 l-33 0 0 -54z"/>
<path d="M1157 354 c-15 -16 -6 -51 16 -62 l22 -11 -22 0 c-31 -1 -30 -31 0
-31 13 0 31 6 41 13 15 11 17 17 7 35 -6 12 -16 22 -21 22 -6 0 -10 4 -10 10
0 5 7 7 16 3 12 -4 15 -2 12 8 -5 15 -49 24 -61 13z"/>
<path d="M1270 340 c-16 -16 -18 -24 -9 -47 12 -32 26 -43 57 -43 13 0 22 6
22 15 0 8 -9 15 -19 15 -20 0 -31 17 -24 38 3 6 13 12 24 12 10 0 19 7 19 15
0 22 -46 19 -70 -5z"/>
<path d="M1538 349 c-38 -22 -12 -99 33 -99 24 0 59 34 59 58 0 40 -53 64 -92
41z m52 -38 c0 -11 -5 -23 -11 -27 -15 -9 -33 12 -26 30 9 23 37 20 37 -3z"/>
<path d="M2019 355 c0 -3 -1 -21 -1 -40 0 -60 2 -65 17 -65 12 0 15 13 15 55
0 42 -3 55 -15 55 -8 0 -15 -2 -16 -5z"/>
<path d="M2106 344 c-48 -47 17 -120 74 -84 13 8 12 10 -1 15 -9 3 -22 5 -29
3 -7 -2 -14 2 -16 7 -3 6 8 11 23 10 19 0 29 6 31 18 8 41 -50 64 -82 31z m44
-14 c0 -5 -4 -10 -10 -10 -5 0 -10 5 -10 10 0 6 5 10 10 10 6 0 10 -4 10 -10z"/>
<path d="M2228 335 c-2 -11 -1 -35 1 -52 5 -46 29 -43 33 4 4 52 28 56 28 4 0
-33 4 -41 18 -41 13 0 19 9 20 35 4 55 -11 74 -58 72 -31 -1 -40 -5 -42 -22z"/>
<path d="M2381 346 c-34 -40 -5 -100 45 -94 30 4 35 22 8 26 -34 7 -35 18 -2
18 30 -1 33 2 29 24 -1 14 -8 28 -15 32 -18 12 -53 9 -65 -6z m44 -16 c3 -5
-1 -10 -10 -10 -9 0 -13 5 -10 10 3 6 8 10 10 10 2 0 7 -4 10 -10z"/>
<path d="M2504 349 c-2 -4 -3 -28 -2 -53 1 -38 5 -46 20 -46 16 0 19 6 17 34
-2 19 0 38 4 43 11 11 27 -17 27 -49 0 -17 5 -28 14 -28 18 0 24 37 14 77 -8
31 -11 33 -49 31 -22 -1 -42 -5 -45 -9z"/>
</g>
</svg>
