<?xml version="1.0" encoding="utf-8"?>
<!-- Generator: Adobe Illustrator 26.3.1, SVG Export Plug-In . SVG Version: 6.00 Build 0)  -->
<svg version="1.1" id="a" xmlns="http://www.w3.org/2000/svg" xmlns:xlink="http://www.w3.org/1999/xlink" x="0px" y="0px"
	 viewBox="0 0 159.6 176.8" style="enable-background:new 0 0 159.6 176.8;" xml:space="preserve">
<style type="text/css">
	.st0{fill:#FFFFFF;}
	.st1{fill:#0063A2;}
	.st2{fill:#F7AA0F;}
</style>
<path id="b" class="st0" d="M46.5,0h66.7c25.7,0,46.5,20.8,46.5,46.5v83.9c0,25.7-20.8,46.5-46.5,46.5H46.5
	C20.8,176.8,0,156,0,130.3V46.5C0,20.8,20.8,0,46.5,0z"/>
<g>
	<path class="st1" d="M26.6,153.2c0.5-0.1,1.1-0.1,1.8-0.1c1.1,0,1.9,0.2,2.4,0.6c0.6,0.4,1,1.2,1,2.2c0,1.1-0.4,1.9-1,2.4
		c-0.6,0.5-1.6,0.8-2.7,0.8c-0.7,0-1.2,0-1.5-0.1L26.6,153.2L26.6,153.2z M27.9,157.9c0.1,0,0.3,0,0.5,0c1.2,0,2-0.6,2-2.1
		c0-1.3-0.7-1.9-1.9-1.9c-0.3,0-0.5,0-0.6,0.1L27.9,157.9L27.9,157.9z"/>
	<path class="st1" d="M33.5,158.9v-4.3h1.3v4.3H33.5z M34.2,154.1c-0.5,0-0.7-0.3-0.7-0.7s0.3-0.7,0.8-0.7s0.7,0.3,0.7,0.7
		C34.9,153.8,34.6,154.1,34.2,154.1L34.2,154.1L34.2,154.1z"/>
	<path class="st1" d="M37.8,157.2c0,0.6,0.6,0.8,1.2,0.8c0.5,0,0.8-0.1,1.2-0.2l0.2,0.9c-0.4,0.2-1,0.3-1.5,0.3
		c-1.5,0-2.3-0.8-2.3-2.2c0-1.1,0.7-2.3,2.2-2.3c1.4,0,1.9,1.1,1.9,2.1c0,0.2,0,0.4,0,0.5L37.8,157.2L37.8,157.2z M39.4,156.3
		c0-0.3-0.1-0.9-0.7-0.9c-0.6,0-0.8,0.5-0.8,0.9C37.8,156.3,39.4,156.3,39.4,156.3z"/>
	<path class="st1" d="M42.3,157.8c0.2,0.1,0.8,0.3,1.1,0.3s0.6-0.1,0.6-0.4s-0.1-0.3-0.6-0.5c-0.9-0.3-1.2-0.8-1.2-1.3
		c0-0.8,0.7-1.4,1.7-1.4c0.5,0,0.9,0.1,1.2,0.2l-0.2,0.9c-0.2-0.1-0.6-0.2-0.9-0.2c-0.3,0-0.5,0.1-0.5,0.3s0.2,0.3,0.7,0.5
		c0.8,0.3,1.1,0.7,1.2,1.3c0,0.8-0.6,1.4-1.8,1.4c-0.6,0-1.1-0.1-1.4-0.3L42.3,157.8L42.3,157.8z"/>
	<path class="st1" d="M48.4,153.5v1.2h1v1h-1v1.6c0,0.5,0.1,0.8,0.5,0.8c0.2,0,0.3,0,0.4,0v1c-0.2,0.1-0.5,0.1-0.8,0.1
		c-0.4,0-0.8-0.1-1-0.4c-0.2-0.2-0.4-0.7-0.4-1.3v-1.8h-0.6v-1h0.6v-0.8L48.4,153.5L48.4,153.5z"/>
	<path class="st1" d="M57.7,157.4l-0.4,1.5h-1.4l1.8-5.9h1.7l1.8,5.9h-1.4l-0.5-1.5H57.7L57.7,157.4z M59.2,156.4l-0.4-1.2
		c-0.1-0.4-0.2-0.8-0.3-1.1h0c-0.1,0.4-0.2,0.8-0.3,1.1l-0.4,1.2H59.2L59.2,156.4z"/>
	<path class="st1" d="M66.4,157.9c0,0.4,0,0.8,0.1,1h-1.2l-0.1-0.4h0c-0.3,0.3-0.7,0.5-1.2,0.5c-0.9,0-1.4-0.6-1.4-1.3
		c0-1.1,1-1.6,2.5-1.6v-0.1c0-0.2-0.1-0.6-0.8-0.6c-0.4,0-0.9,0.1-1.2,0.3l-0.2-0.9c0.3-0.2,0.9-0.4,1.7-0.4c1.4,0,1.9,0.8,1.9,1.8
		V157.9L66.4,157.9z M65.2,156.9c-0.7,0-1.2,0.2-1.2,0.7c0,0.3,0.2,0.5,0.5,0.5c0.3,0,0.6-0.2,0.7-0.5c0-0.1,0-0.1,0-0.2V156.9
		L65.2,156.9z"/>
	<path class="st1" d="M68.4,156.1c0-0.6,0-1,0-1.4h1.1l0.1,0.8h0c0.2-0.6,0.7-0.9,1.2-0.9c0.1,0,0.2,0,0.3,0v1.2c-0.1,0-0.2,0-0.4,0
		c-0.5,0-0.8,0.2-0.9,0.7c0,0.1,0,0.2,0,0.3v2.2h-1.3L68.4,156.1L68.4,156.1z"/>
	<path class="st1" d="M72.6,157.8c0.2,0.1,0.8,0.3,1.1,0.3s0.6-0.1,0.6-0.4s-0.1-0.3-0.6-0.5c-0.9-0.3-1.2-0.8-1.2-1.3
		c0-0.8,0.7-1.4,1.7-1.4c0.5,0,0.9,0.1,1.2,0.2l-0.2,0.9c-0.2-0.1-0.6-0.2-0.9-0.2c-0.3,0-0.5,0.1-0.5,0.3s0.2,0.3,0.7,0.5
		c0.8,0.3,1.1,0.7,1.2,1.3c0,0.8-0.6,1.4-1.8,1.4c-0.6,0-1.1-0.1-1.4-0.3L72.6,157.8L72.6,157.8z"/>
	<path class="st1" d="M80.4,158.9c-0.2,0.1-0.7,0.2-1.2,0.2c-1.4,0-2.3-0.9-2.3-2.2c0-1.2,0.9-2.3,2.4-2.3c0.3,0,0.7,0.1,1,0.2
		l-0.2,1c-0.2-0.1-0.4-0.1-0.7-0.1c-0.7,0-1.2,0.5-1.1,1.2c0,0.8,0.5,1.2,1.2,1.2c0.3,0,0.6-0.1,0.8-0.1L80.4,158.9L80.4,158.9z"/>
	<path class="st1" d="M82,152.8h1.3v2.4h0c0.1-0.2,0.3-0.3,0.5-0.4c0.2-0.1,0.4-0.2,0.7-0.2c0.8,0,1.5,0.6,1.5,1.9v2.5h-1.3v-2.4
		c0-0.6-0.2-0.9-0.7-0.9c-0.3,0-0.6,0.2-0.7,0.5c0,0.1,0,0.2,0,0.3v2.5H82L82,152.8L82,152.8z"/>
	<path class="st1" d="M90,159.1c-1.2,0-2.2-0.8-2.2-2.2s0.9-2.3,2.3-2.3c1.3,0,2.2,0.9,2.2,2.2C92.2,158.3,91.1,159.1,90,159.1
		L90,159.1L90,159.1z M90,158.1c0.5,0,0.8-0.5,0.8-1.3c0-0.6-0.2-1.3-0.8-1.3s-0.9,0.6-0.9,1.3C89.1,157.6,89.5,158.1,90,158.1
		L90,158.1L90,158.1z"/>
	<path class="st1" d="M95.4,153.5v1.2h0.9v1h-0.9v1.6c0,0.5,0.1,0.8,0.5,0.8c0.2,0,0.3,0,0.4,0v1c-0.2,0.1-0.5,0.1-0.8,0.1
		c-0.4,0-0.8-0.1-1-0.4c-0.2-0.2-0.4-0.7-0.4-1.3v-1.8h-0.6v-1h0.6v-0.8L95.4,153.5L95.4,153.5z"/>
	<path class="st1" d="M104.1,154.2h-1.6v-1.1h4.5v1.1h-1.6v4.8h-1.3L104.1,154.2L104.1,154.2z"/>
	<path class="st1" d="M108.5,158.9v-4.3h1.3v4.3H108.5z M109.2,154.1c-0.4,0-0.7-0.3-0.7-0.7s0.3-0.7,0.8-0.7s0.7,0.3,0.7,0.7
		C109.9,153.8,109.7,154.1,109.2,154.1L109.2,154.1L109.2,154.1z"/>
	<path class="st1" d="M112.8,157.2c0,0.6,0.6,0.8,1.2,0.8c0.4,0,0.8-0.1,1.2-0.2l0.2,0.9c-0.4,0.2-1,0.3-1.6,0.3
		c-1.4,0-2.3-0.8-2.3-2.2c0-1.1,0.7-2.3,2.2-2.3c1.4,0,1.9,1.1,1.9,2.1c0,0.2,0,0.4,0,0.5L112.8,157.2L112.8,157.2z M114.4,156.3
		c0-0.3-0.1-0.9-0.7-0.9c-0.6,0-0.8,0.5-0.8,0.9H114.4z"/>
	<path class="st1" d="M117.3,156.1c0-0.5,0-1,0-1.4h1.2l0.1,0.6h0c0.2-0.3,0.6-0.7,1.3-0.7c0.9,0,1.5,0.6,1.5,1.8v2.5H120v-2.4
		c0-0.6-0.2-0.9-0.7-0.9c-0.4,0-0.6,0.2-0.7,0.5c0,0.1,0,0.2,0,0.3v2.5h-1.3L117.3,156.1L117.3,156.1z"/>
	<path class="st1" d="M124.3,157.2c0,0.6,0.6,0.8,1.2,0.8c0.4,0,0.8-0.1,1.2-0.2l0.2,0.9c-0.4,0.2-1,0.3-1.6,0.3
		c-1.4,0-2.3-0.8-2.3-2.2c0-1.1,0.7-2.3,2.2-2.3c1.4,0,1.9,1.1,1.9,2.1c0,0.2,0,0.4,0,0.5L124.3,157.2L124.3,157.2z M125.9,156.3
		c0-0.3-0.1-0.9-0.7-0.9c-0.6,0-0.8,0.5-0.8,0.9H125.9z"/>
	<path class="st1" d="M128.8,156.1c0-0.5,0-1,0-1.4h1.1l0.1,0.6h0c0.2-0.3,0.6-0.7,1.3-0.7c0.9,0,1.5,0.6,1.5,1.8v2.5h-1.3v-2.4
		c0-0.6-0.2-0.9-0.7-0.9c-0.4,0-0.6,0.2-0.7,0.5c0,0.1,0,0.2,0,0.3v2.5h-1.3L128.8,156.1L128.8,156.1z"/>
	<path class="st1" d="M78.8,79.1c-4.6-1.3-9.2,0.9-13.4,2.7c-4.5,1.9-8.5,5.3-9.8,10.2l-0.1,1.6c0,0.4,0.2,0.9,0.5,1.2l1,1.1
		c0.2,0.1,0.4,0.2,0.6,0.3l1.2,0.5c0.4,0.1,0.9,0.2,1.3,0.1l2.3-0.6c6.3-1.7,11.7-5.2,15.7-10.6c2.3-3.1,4.1-7.4,0.8-10.4
		c-1.2-1.1-2.7-1.4-4.3-1.7c-1.2-0.3-2.4,0.5-2.7,1.7c-0.3,1.2,0.5,2.4,1.7,2.7c0.7,0.1,1.4,0.5,2.2,0.4c0.9,1.6-0.3,3.2-1.2,4.5
		c-1.1,1.6-2.3,2.8-3.7,4.2c-2.2,2.2-4.9,3.2-7.7,4.3l-4.3,1.3l1.3,0.1L59,91.8l1,0.8L59.6,92l0.5,1.2l0.1-0.6
		c0.5-1.2,0.8-2.4,1.8-3.3c4.3-3.8,9.8-6.2,15.5-6.2c0,0.1,0,0.1,0,0.1c1.2,0.4,2.4-0.2,2.9-1.4C80.6,80.8,80,79.5,78.8,79.1
		L78.8,79.1L78.8,79.1z"/>
	<g>
		<path class="st2" d="M91.1,91.6c-4.6-1.3-9.2,0.9-13.4,2.7c-4.5,1.9-8.6,5.3-9.8,10.2l-0.1,1.6c0,0.4,0.2,0.9,0.5,1.2l1,1.1
			c0.2,0.1,0.4,0.2,0.6,0.3l1.2,0.5c0.4,0.1,0.9,0.2,1.3,0.1l2.3-0.6c6.3-1.7,11.7-5.2,15.7-10.6c2.3-3.1,4.1-7.4,0.8-10.4
			c-1.2-1.1-2.7-1.4-4.3-1.7c-1.2-0.3-2.4,0.5-2.7,1.7c-0.3,1.2,0.5,2.4,1.7,2.7c0.7,0.1,1.4,0.5,2.2,0.4c0.9,1.6-0.3,3.2-1.2,4.5
			c-1.1,1.6-2.3,2.8-3.7,4.2c-2.2,2.2-4.9,3.2-7.7,4.3l-4.3,1.3l1.3,0.1l-1.4-0.6l1,0.8l-0.4-0.6l0.4,1.2l0.1-0.6
			c0.5-1.2,0.8-2.4,1.8-3.3c4.3-3.8,9.8-6.2,15.5-6.2c0,0.1,0,0.1,0,0.1c1.2,0.4,2.4-0.2,2.9-1.4C92.9,93.3,92.3,92.1,91.1,91.6
			C91.1,91.6,91.1,91.6,91.1,91.6z"/>
		<path class="st2" d="M88,92.8c-0.4,5.3-1.5,10.6,0.2,15.8c0.4,1.1,1.1,1.9,2.1,2.4c1,0.7,2.4,0.4,3.1-0.6c0.7-1,0.5-2.4-0.6-3.1
			c-2.3-4.2-0.5-9.3-0.4-13.9c0.2-1.2-0.7-2.4-1.9-2.6C89.3,90.7,88.2,91.6,88,92.8C88,92.8,88,92.8,88,92.8z"/>
	</g>
	<path class="st1" d="M91.4,83.7c4.5,1.3,9-0.5,13.3-2.1c3.2-1.2,6.2-2.7,9.3-4.2c1.1-0.5,1.6-1.9,1.1-3c-0.5-1.1-1.9-1.6-3-1.1
		C106,76,100,79.8,93.2,79.6c-1.2-0.5-2.5,0.1-2.9,1.2C89.7,81.9,90.3,83.2,91.4,83.7L91.4,83.7L91.4,83.7z"/>
	<path class="st1" d="M101.6,105.5c-1.8-3.2-1.2-7.1-1.1-10.6c0.1-3.8,0.7-7.6,2.2-11.1c2.5-6,5.3-11.8,8.6-17.3
		c0.6-1,0.2-2.3-0.8-2.8c-1-0.6-2.3-0.2-2.8,0.8c-4.1,7.4-8.4,14.7-10.4,23.3c-0.6,2.4-0.9,4.7-0.9,7.1c0,4.3-0.7,9.3,2,13.1
		c0.7,0.9,2,1.1,2.9,0.4S102.2,106.4,101.6,105.5L101.6,105.5L101.6,105.5z"/>
	<path class="st1" d="M67.6,95.7c8.1-1,13.4-8.1,15.1-15.9c1.5-6.7,2.6-12.9,2.9-19.5c0-1.1-0.9-2.1-2-2.1c-1.2,0-2.1,0.9-2.1,2
		c-0.3,7.7-1.8,15.4-4,22.8c-2,4.2-5.5,8.2-10.4,8.7c-1.1,0.2-1.9,1.2-1.8,2.3C65.4,95.1,66.4,95.9,67.6,95.7
		C67.6,95.7,67.6,95.7,67.6,95.7z"/>
	<path class="st1" d="M55.2,103.8c0,1.1,0.9,2.1,2.1,2.1s2.1-0.9,2.1-2.1s-0.9-2.1-2.1-2.1S55.2,102.7,55.2,103.8
		C55.2,103.8,55.2,103.8,55.2,103.8z"/>
	<path class="st2" d="M90.6,70.6c0,1.1,0.9,2.1,2.1,2.1s2.1-0.9,2.1-2.1s-0.9-2.1-2.1-2.1S90.6,69.4,90.6,70.6L90.6,70.6z"/>
	<path class="st1" d="M110.7,107.6c0,1.1,0.9,2.1,2.1,2.1s2.1-0.9,2.1-2.1s-0.9-2.1-2.1-2.1S110.7,106.4,110.7,107.6L110.7,107.6z"
		/>
	<path class="st2" d="M99.9,150.3c-1.6,5.4-1.9,11-1,16.6c0.1,0.4,0.5,0.8,0.9,0.7c0.5-0.1,0.8-0.5,0.7-0.9c-0.9-5.3-0.6-10.8,1-16
		c0.1-0.4-0.2-0.9-0.6-1C100.4,149.5,100,149.8,99.9,150.3L99.9,150.3L99.9,150.3z"/>
	<path class="st2" d="M52.6,163.1c-0.1-4.4,1.7-8.7,4.2-12.4c0.3-0.4,0.2-0.9-0.2-1.1c-0.4-0.3-0.9-0.2-1.2,0.2
		c-2.6,3.9-4.6,8.5-4.5,13.3c0,0.5,0.4,0.8,0.8,0.8S52.6,163.6,52.6,163.1L52.6,163.1L52.6,163.1z"/>
	<g>
		<path class="st2" d="M31.8,128.9c-0.4,0.2-1.2,0.4-2.2,0.4c-2.7,0-4.3-1.7-4.3-4.2c0-2.8,1.9-4.4,4.5-4.4c1,0,1.7,0.2,2,0.4
			l-0.3,1.2c-0.4-0.2-1-0.3-1.6-0.3c-1.7,0-2.9,1.1-2.9,3.1c0,1.8,1.1,3,2.9,3c0.6,0,1.3-0.1,1.7-0.3L31.8,128.9z"/>
		<path class="st2" d="M33.9,126.5c0,1.1,0.9,1.6,1.9,1.6c0.7,0,1.2-0.1,1.7-0.3l0.2,1.1c-0.5,0.2-1.2,0.4-2.1,0.4
			c-2,0-3.1-1.2-3.1-3.1c0-1.7,1-3.3,3-3.3s2.6,1.6,2.6,3c0,0.3,0,0.5,0,0.7L33.9,126.5L33.9,126.5z M36.6,125.4
			c0-0.6-0.2-1.5-1.3-1.5c-1,0-1.3,0.9-1.4,1.5H36.6z"/>
		<path class="st2" d="M39.2,124.9c0-0.7,0-1.3,0-1.8h1.3l0.1,0.9h0c0.3-0.5,0.9-1.1,1.9-1.1c1.1,0,2.2,0.7,2.2,2.6v3.6h-1.5v-3.4
			c0-0.9-0.3-1.5-1.2-1.5c-0.6,0-1,0.4-1.2,0.9c0,0.1-0.1,0.3-0.1,0.5v3.6h-1.5V124.9L39.2,124.9z"/>
		<path class="st2" d="M48.1,121.5v1.6h1.5v1.2h-1.5v2.7c0,0.7,0.2,1.1,0.8,1.1c0.3,0,0.4,0,0.6-0.1l0,1.2c-0.2,0.1-0.6,0.2-1.1,0.2
			c-0.6,0-1-0.2-1.3-0.5c-0.3-0.4-0.5-0.9-0.5-1.7v-2.9h-0.9v-1.2h0.9v-1.1L48.1,121.5L48.1,121.5z"/>
		<path class="st2" d="M50.7,125c0-0.8,0-1.4,0-2H52l0,1.2h0c0.3-0.9,1-1.3,1.7-1.3c0.2,0,0.2,0,0.4,0v1.4c-0.1,0-0.3-0.1-0.5-0.1
			c-0.7,0-1.2,0.5-1.4,1.2c0,0.1,0,0.3,0,0.5v3.1h-1.5L50.7,125L50.7,125z"/>
		<path class="st2" d="M60.6,127.3c0,0.7,0,1.3,0,1.8h-1.3l-0.1-0.9h0c-0.3,0.4-0.9,1.1-2,1.1s-2.1-0.7-2.1-2.6v-3.6h1.5v3.3
			c0,1,0.3,1.7,1.1,1.7c0.6,0,1-0.4,1.2-0.8c0-0.1,0.1-0.3,0.1-0.5v-3.7h1.5L60.6,127.3L60.6,127.3z"/>
		<path class="st2" d="M62.2,124.9c0-0.7,0-1.3,0-1.8h1.3l0.1,0.9h0c0.3-0.5,0.8-1,1.9-1c0.8,0,1.4,0.4,1.7,1.1h0
			c0.2-0.3,0.5-0.6,0.8-0.8c0.3-0.2,0.7-0.4,1.2-0.4c1,0,2,0.7,2,2.6v3.6h-1.5v-3.4c0-1-0.3-1.6-1.1-1.6c-0.5,0-0.9,0.4-1.1,0.8
			c0,0.2-0.1,0.3-0.1,0.5v3.6h-1.5v-3.5c0-0.8-0.3-1.4-1.1-1.4c-0.6,0-1,0.4-1.1,0.9c-0.1,0.2-0.1,0.3-0.1,0.5v3.6h-1.5L62.2,124.9
			L62.2,124.9z"/>
		<path class="st2" d="M77.1,126.8l-0.7,2.4h-1.6l2.7-8.4h2l2.7,8.4h-1.7l-0.8-2.4C79.8,126.8,77.1,126.8,77.1,126.8z M79.5,125.6
			l-0.7-2.1c-0.2-0.5-0.3-1.1-0.4-1.6h0c-0.1,0.5-0.2,1.1-0.4,1.6l-0.7,2.1H79.5L79.5,125.6z"/>
		<path class="st2" d="M83.2,124.9c0-0.7,0-1.3-0.1-1.8h1.3l0.1,0.9h0c0.3-0.5,0.8-1,1.9-1c0.8,0,1.4,0.4,1.7,1.1h0
			c0.2-0.3,0.5-0.6,0.8-0.8c0.3-0.2,0.7-0.4,1.2-0.4c1,0,2,0.7,2,2.6v3.6h-1.5v-3.4c0-1-0.3-1.6-1.1-1.6c-0.5,0-0.9,0.4-1.1,0.8
			c0,0.2-0.1,0.3-0.1,0.5v3.6H87v-3.5c0-0.8-0.3-1.4-1.1-1.4c-0.6,0-1,0.4-1.1,0.9c-0.1,0.2-0.1,0.3-0.1,0.5v3.6h-1.5L83.2,124.9
			L83.2,124.9z"/>
		<path class="st2" d="M93.8,120.3h1.5v3.6h0c0.4-0.6,1-1,1.9-1c1.5,0,2.5,1.2,2.5,3.1c0,2.2-1.4,3.3-2.8,3.3
			c-0.8,0-1.5-0.3-1.9-1.1h0l-0.1,0.9h-1.3c0-0.4,0.1-1.1,0.1-1.7C93.8,127.4,93.8,120.3,93.8,120.3z M95.4,126.6c0,0.1,0,0.2,0,0.4
			c0.2,0.6,0.7,1.1,1.4,1.1c1,0,1.6-0.8,1.6-2c0-1.1-0.5-1.9-1.5-1.9c-0.6,0-1.2,0.4-1.4,1.1c0,0.1-0.1,0.2-0.1,0.4L95.4,126.6
			L95.4,126.6z"/>
		<path class="st2" d="M106.6,127.3c0,0.7,0,1.3,0.1,1.8h-1.3l-0.1-0.9h0c-0.3,0.4-0.9,1.1-1.9,1.1s-2.1-0.7-2.1-2.6v-3.6h1.5v3.3
			c0,1,0.3,1.7,1.1,1.7c0.6,0,1-0.4,1.2-0.8c0.1-0.1,0.1-0.3,0.1-0.5v-3.7h1.5L106.6,127.3L106.6,127.3z"/>
		<path class="st2" d="M108.2,120.3h1.6v8.9h-1.6C108.2,129.1,108.2,120.3,108.2,120.3z"/>
		<path class="st2" d="M116.2,127.7c0,0.6,0,1.1,0.1,1.5h-1.4l-0.1-0.7h0c-0.4,0.5-1,0.8-1.8,0.8c-1.2,0-1.9-0.9-1.9-1.8
			c0-1.5,1.4-2.3,3.6-2.3v-0.1c0-0.4-0.2-1.1-1.2-1.1c-0.6,0-1.2,0.2-1.6,0.4l-0.3-1c0.4-0.3,1.2-0.5,2.2-0.5c1.9,0,2.5,1.2,2.5,2.6
			L116.2,127.7L116.2,127.7z M114.7,126.2c-1.1,0-2.1,0.2-2.1,1.1c0,0.6,0.4,0.9,0.9,0.9c0.6,0,1.1-0.4,1.2-0.8
			c0-0.1,0.1-0.2,0.1-0.3V126.2L114.7,126.2z"/>
		<path class="st2" d="M117.8,124.9c0-0.7,0-1.3-0.1-1.8h1.3l0.1,0.9h0c0.3-0.5,0.9-1.1,1.9-1.1c1.1,0,2.2,0.7,2.2,2.6v3.6h-1.5
			v-3.4c0-0.9-0.3-1.5-1.2-1.5c-0.6,0-1,0.4-1.2,0.9c-0.1,0.1-0.1,0.3-0.1,0.5v3.6h-1.6V124.9L117.8,124.9z"/>
		<path class="st2" d="M126.6,121.5v1.6h1.5v1.2h-1.5v2.7c0,0.7,0.2,1.1,0.8,1.1c0.3,0,0.4,0,0.6-0.1l0,1.2
			c-0.2,0.1-0.6,0.2-1.1,0.2c-0.6,0-1-0.2-1.3-0.5c-0.3-0.4-0.5-0.9-0.5-1.7v-2.9h-0.9v-1.2h0.9v-1.1L126.6,121.5L126.6,121.5z"/>
		<path class="st2" d="M130.2,126.5c0,1.1,0.9,1.6,1.9,1.6c0.7,0,1.2-0.1,1.7-0.3l0.2,1.1c-0.5,0.2-1.2,0.4-2.1,0.4
			c-2,0-3.1-1.2-3.1-3.1c0-1.7,1-3.3,3-3.3s2.6,1.6,2.6,3c0,0.3,0,0.5-0.1,0.7L130.2,126.5L130.2,126.5z M132.9,125.4
			c0-0.6-0.2-1.5-1.3-1.5c-0.9,0-1.4,0.9-1.4,1.5H132.9z"/>
		<path class="st2" d="M43.9,135c0.6-0.1,1.4-0.2,2.3-0.2c1.2,0,2,0.2,2.6,0.7c0.5,0.4,0.7,1,0.7,1.7c0,1.1-0.7,1.8-1.5,2.1v0
			c0.6,0.2,1,0.8,1.2,1.6c0.3,1.1,0.5,2,0.7,2.4h-1.6c-0.1-0.2-0.3-0.9-0.6-2c-0.2-1.1-0.6-1.4-1.5-1.5h-0.8v3.5h-1.5L43.9,135
			L43.9,135z M45.4,138.7h0.9c1,0,1.7-0.6,1.7-1.4c0-0.9-0.7-1.4-1.7-1.4c-0.5,0-0.8,0-1,0.1L45.4,138.7L45.4,138.7z"/>
		<path class="st2" d="M52,140.7c0,1.1,0.9,1.6,1.9,1.6c0.7,0,1.2-0.1,1.7-0.3l0.2,1.1c-0.5,0.2-1.2,0.4-2.1,0.4
			c-2,0-3.1-1.2-3.1-3.1c0-1.7,1-3.3,3-3.3s2.6,1.6,2.6,3c0,0.3,0,0.5,0,0.6L52,140.7L52,140.7z M54.7,139.6c0-0.6-0.2-1.5-1.3-1.5
			c-1,0-1.3,0.9-1.4,1.5H54.7z"/>
		<path class="st2" d="M58.3,137.2l1,3.1c0.2,0.5,0.3,1,0.4,1.5h0c0.1-0.5,0.2-1,0.4-1.5l1-3.1h1.6l-2.3,6.1h-1.5l-2.3-6.1
			C56.7,137.2,58.3,137.2,58.3,137.2z"/>
		<path class="st2" d="M68.3,141.8c0,0.6,0,1.1,0.1,1.5H67l-0.1-0.7h0c-0.4,0.5-1,0.8-1.8,0.8c-1.2,0-1.9-0.9-1.9-1.8
			c0-1.5,1.4-2.3,3.6-2.3v-0.1c0-0.4-0.2-1.1-1.2-1.1c-0.6,0-1.2,0.2-1.6,0.4l-0.3-1c0.4-0.3,1.2-0.5,2.2-0.5c1.9,0,2.5,1.2,2.5,2.6
			L68.3,141.8L68.3,141.8z M66.8,140.3c-1.1,0-2.1,0.2-2.1,1.1c0,0.6,0.4,0.9,0.9,0.9c0.6,0,1.1-0.4,1.2-0.8c0-0.1,0.1-0.2,0.1-0.3
			V140.3L66.8,140.3z"/>
		<path class="st2" d="M69.9,134.4h1.6v8.9h-1.6V134.4z"/>
		<path class="st2" d="M74.8,135.5c0,0.5-0.3,0.8-0.9,0.8s-0.8-0.4-0.8-0.8s0.3-0.8,0.9-0.8S74.8,135,74.8,135.5z M73.2,143.3v-6.1
			h1.6v6.1H73.2z"/>
		<path class="st2" d="M81.9,134.4v7.1c0,0.6,0,1.3,0.1,1.7h-1.4l-0.1-1h0c-0.4,0.7-1.1,1.1-2,1.1c-1.4,0-2.6-1.2-2.6-3.1
			c0-2,1.3-3.2,2.7-3.2c0.8,0,1.4,0.4,1.7,0.8h0v-3.4L81.9,134.4L81.9,134.4z M80.4,139.7c0-0.1,0-0.3,0-0.4
			c-0.1-0.6-0.6-1.1-1.3-1.1c-1,0-1.5,0.9-1.5,2s0.6,1.9,1.5,1.9c0.6,0,1.2-0.4,1.3-1.1c0-0.1,0.1-0.3,0.1-0.4V139.7L80.4,139.7z"/>
		<path class="st2" d="M88.3,141.8c0,0.6,0,1.1,0.1,1.5H87l-0.1-0.7h0c-0.4,0.5-1,0.8-1.8,0.8c-1.2,0-1.9-0.9-1.9-1.8
			c0-1.5,1.4-2.3,3.6-2.3v-0.1c0-0.4-0.2-1.1-1.2-1.1c-0.6,0-1.2,0.2-1.6,0.4l-0.3-1c0.4-0.3,1.2-0.5,2.2-0.5c1.9,0,2.5,1.2,2.5,2.6
			L88.3,141.8L88.3,141.8z M86.8,140.3c-1.1,0-2.1,0.2-2.1,1.1c0,0.6,0.4,0.9,0.9,0.9c0.6,0,1.1-0.4,1.2-0.8c0-0.1,0.1-0.2,0.1-0.3
			V140.3L86.8,140.3z"/>
		<path class="st2" d="M91.6,135.6v1.6h1.5v1.1h-1.5v2.7c0,0.7,0.2,1.1,0.8,1.1c0.3,0,0.4,0,0.6-0.1l0,1.2c-0.2,0.1-0.6,0.2-1.1,0.2
			c-0.6,0-1-0.2-1.3-0.5c-0.3-0.4-0.5-0.9-0.5-1.7v-2.9h-0.9v-1.1h0.9v-1.1L91.6,135.6L91.6,135.6z"/>
		<path class="st2" d="M95.9,135.5c0,0.5-0.3,0.8-0.9,0.8s-0.8-0.4-0.8-0.8s0.3-0.8,0.9-0.8S95.9,135,95.9,135.5z M94.2,143.3v-6.1
			h1.6v6.1H94.2z"/>
		<path class="st2" d="M98.5,140.7c0,1.1,0.9,1.6,1.9,1.6c0.7,0,1.2-0.1,1.7-0.3l0.2,1.1c-0.5,0.2-1.2,0.4-2.1,0.4
			c-2,0-3.1-1.2-3.1-3.1c0-1.7,1-3.3,3-3.3s2.6,1.6,2.6,3c0,0.3,0,0.5-0.1,0.6L98.5,140.7L98.5,140.7z M101.2,139.6
			c0-0.6-0.2-1.5-1.3-1.5c-0.9,0-1.3,0.9-1.4,1.5C98.5,139.6,101.2,139.6,101.2,139.6z"/>
		<path class="st1" d="M106.8,140.2l0.5,1.5c0.1,0.3,0.2,0.5,0.2,0.8h0c0.1-0.2,0.1-0.5,0.2-0.8l0.5-1.5h0.8l-1.2,3h-0.8l-1.1-3
			H106.8L106.8,140.2z"/>
		<path class="st1" d="M109.6,143.3c-0.3,0-0.5-0.2-0.5-0.5s0.2-0.5,0.5-0.5s0.5,0.2,0.5,0.5S109.8,143.3,109.6,143.3L109.6,143.3z"
			/>
		<path class="st1" d="M110.4,142.8l1.1-1.5c0.2-0.2,0.3-0.3,0.4-0.5h-1.5v-0.6h2.4v0.5l-1.1,1.4c-0.2,0.2-0.3,0.4-0.4,0.5h1.6v0.6
			h-2.6L110.4,142.8L110.4,142.8z"/>
		<path class="st1" d="M113.8,143.3c-0.3,0-0.5-0.2-0.5-0.5s0.2-0.5,0.5-0.5s0.5,0.2,0.5,0.5S114.1,143.3,113.8,143.3L113.8,143.3z"
			/>
		<path class="st1" d="M115.4,140.2l0.3,1.4c0.1,0.3,0.1,0.7,0.2,1h0c0.1-0.3,0.2-0.7,0.2-1l0.4-1.4h0.6l0.4,1.4
			c0.1,0.4,0.2,0.7,0.2,1h0c0.1-0.3,0.1-0.7,0.2-1l0.3-1.4h0.8l-0.9,3h-0.7l-0.4-1.2c-0.1-0.3-0.2-0.6-0.2-1h0
			c-0.1,0.4-0.1,0.7-0.2,1l-0.4,1.2h-0.7l-0.9-3L115.4,140.2L115.4,140.2z"/>
	</g>
</g>
</svg>
