<?xml version="1.0" encoding="utf-8"?>
<!-- Generator: Adobe Illustrator 26.3.1, SVG Export Plug-In . SVG Version: 6.00 Build 0)  -->
<svg version="1.1" id="Layer_1" xmlns="http://www.w3.org/2000/svg" xmlns:xlink="http://www.w3.org/1999/xlink" x="0px" y="0px"
	 viewBox="0 0 180 180" style="enable-background:new 0 0 180 180;" xml:space="preserve">
<style type="text/css">
	.st0{fill:#57C5DC;}
</style>
<g id="link">
	<path id="Path_736" class="st0" d="M120.9,90l15.4,15.4l30.9-30.9c17.1-17.1,17.1-44.7,0-61.8s-44.7-17.1-61.8,0L74.6,43.7L90,59.1
		l30.9-30.9c8.7-8.4,22.5-8.1,30.9,0.5c8.2,8.5,8.2,21.9,0,30.3L120.9,90z"/>
	<path id="Path_737" class="st0" d="M90,120.9l15.4,15.4l-30.9,30.9c-17.1,17.1-44.7,17.1-61.8,0s-17.1-44.7,0-61.8l30.9-30.9
		L59.1,90l-30.9,30.9c-8.4,8.7-8.1,22.5,0.5,30.9c8.5,8.2,21.9,8.2,30.3,0L90,120.9z"/>
	<path id="Path_738" class="st0" d="M120.9,74.6c4.3-4.2,4.5-11.1,0.3-15.4c-4.2-4.3-11.1-4.5-15.4-0.3c-0.1,0.1-0.2,0.2-0.3,0.3
		l-46.3,46.3c-4.2,4.3-4.1,11.3,0.3,15.4c4.2,4.1,10.9,4.1,15.2,0L120.9,74.6z"/>
</g>
</svg>
