<?xml version="1.0" encoding="utf-8"?>
<!-- Generator: Adobe Illustrator 26.3.1, SVG Export Plug-In . SVG Version: 6.00 Build 0)  -->
<svg version="1.1" id="Layer_1" xmlns="http://www.w3.org/2000/svg" xmlns:xlink="http://www.w3.org/1999/xlink" x="0px" y="0px"
	 viewBox="0 0 180 180" style="enable-background:new 0 0 180 180;" xml:space="preserve">
<style type="text/css">
	.st0{fill:#57C5DC;}
	.st1{fill-rule:evenodd;clip-rule:evenodd;fill:#57C5DC;}
</style>
<g id="file-document">
	<path id="Path_536" class="st0" d="M45,144h90v-18H45V144z"/>
	<path id="Path_537" class="st0" d="M135,108H45V90h90V108z"/>
	<path id="Path_538" class="st0" d="M45,72h36V54H45V72z"/>
	<path id="Path_539" class="st1" d="M36,0C21.1,0,9,12.1,9,27v126c0,14.9,12.1,27,27,27h108c14.9,0,27-12.1,27-27V63
		c0-34.8-28.2-63-63-63H36z M36,18h63v45h54v90c0,5-4,9-9,9H36c-5,0-9-4-9-9V27C27,22,31,18,36,18z M117,18.9
		c14.4,2.9,26.4,12.7,32.3,26.1H117V18.9z"/>
</g>
</svg>
