<svg id="our-locations-icon" xmlns="http://www.w3.org/2000/svg" width="46" height="46" viewBox="0 0 46 46">
  <defs>
    <style>
      .cls-1 {
        fill: #e9f6fe;
      }

      .cls-2 {
        fill: #57c5dc;
        fill-rule: evenodd;
      }
    </style>
  </defs>
  <circle id="Ellipse_112" data-name="Ellipse 112" class="cls-1" cx="23" cy="23" r="23"/>
  <g id="pin" transform="translate(11.536 9.165)">
    <path id="Path_982" data-name="Path 982" class="cls-2" d="M18.462,11.367a5.095,5.095,0,1,1-5.095-5.095A5.095,5.095,0,0,1,18.462,11.367Zm-2.547,0A2.547,2.547,0,1,1,13.367,8.82,2.547,2.547,0,0,1,15.914,11.367Z" transform="translate(-1.557 0.443)"/>
    <path id="Path_983" data-name="Path 983" class="cls-2" d="M6.559,20.766a11.464,11.464,0,1,1,16.207-.4l-7.9,8.3Zm14.362-2.155-6.148,6.457L8.316,18.921a8.916,8.916,0,1,1,12.606-.31Z" transform="translate(-3 -1)"/>
  </g>
</svg>
